<svg width="600" height="157" viewBox="0 0 600 157" fill="none" xmlns="http://www.w3.org/2000/svg">
<rect width="600" height="157" fill="white"/>
<path d="M27.88 26.04V28.3H24.16V40H21.36V28.3H17.64V26.04H27.88ZM36.163 28.76C37.003 28.76 37.7496 28.9467 38.403 29.32C39.0563 29.68 39.563 30.22 39.923 30.94C40.2963 31.6467 40.483 32.5 40.483 33.5V40H37.683V33.88C37.683 33 37.463 32.3267 37.023 31.86C36.583 31.38 35.983 31.14 35.223 31.14C34.4496 31.14 33.8363 31.38 33.383 31.86C32.943 32.3267 32.723 33 32.723 33.88V40H29.923V25.2H32.723V30.3C33.083 29.82 33.563 29.4467 34.163 29.18C34.763 28.9 35.4296 28.76 36.163 28.76ZM42.4256 34.42C42.4256 33.3 42.6456 32.3067 43.0856 31.44C43.539 30.5733 44.1456 29.9067 44.9056 29.44C45.679 28.9733 46.539 28.74 47.4856 28.74C48.3123 28.74 49.0323 28.9067 49.6456 29.24C50.2723 29.5733 50.7723 29.9933 51.1456 30.5V28.92H53.9656V40H51.1456V38.38C50.7856 38.9 50.2856 39.3333 49.6456 39.68C49.019 40.0133 48.2923 40.18 47.4656 40.18C46.5323 40.18 45.679 39.94 44.9056 39.46C44.1456 38.98 43.539 38.3067 43.0856 37.44C42.6456 36.56 42.4256 35.5533 42.4256 34.42ZM51.1456 34.46C51.1456 33.78 51.0123 33.2 50.7456 32.72C50.479 32.2267 50.119 31.8533 49.6656 31.6C49.2123 31.3333 48.7256 31.2 48.2056 31.2C47.6856 31.2 47.2056 31.3267 46.7656 31.58C46.3256 31.8333 45.9656 32.2067 45.6856 32.7C45.419 33.18 45.2856 33.7533 45.2856 34.42C45.2856 35.0867 45.419 35.6733 45.6856 36.18C45.9656 36.6733 46.3256 37.0533 46.7656 37.32C47.219 37.5867 47.699 37.72 48.2056 37.72C48.7256 37.72 49.2123 37.5933 49.6656 37.34C50.119 37.0733 50.479 36.7 50.7456 36.22C51.0123 35.7267 51.1456 35.14 51.1456 34.46ZM59.9603 31.22V36.58C59.9603 36.9533 60.047 37.2267 60.2203 37.4C60.407 37.56 60.7136 37.64 61.1403 37.64H62.4403V40H60.6803C58.3203 40 57.1403 38.8533 57.1403 36.56V31.22H55.8203V28.92H57.1403V26.18H59.9603V28.92H62.4403V31.22H59.9603ZM65.0142 26.04H67.9542L65.7942 31.08H63.8742L65.0142 26.04ZM74.202 40.18C73.2954 40.18 72.482 40.02 71.762 39.7C71.042 39.3667 70.4687 38.92 70.042 38.36C69.6287 37.8 69.402 37.18 69.362 36.5H72.182C72.2354 36.9267 72.442 37.28 72.802 37.56C73.1754 37.84 73.6354 37.98 74.182 37.98C74.7154 37.98 75.1287 37.8733 75.422 37.66C75.7287 37.4467 75.882 37.1733 75.882 36.84C75.882 36.48 75.6954 36.2133 75.322 36.04C74.962 35.8533 74.382 35.6533 73.582 35.44C72.7554 35.24 72.0754 35.0333 71.542 34.82C71.022 34.6067 70.5687 34.28 70.182 33.84C69.8087 33.4 69.622 32.8067 69.622 32.06C69.622 31.4467 69.7954 30.8867 70.142 30.38C70.502 29.8733 71.0087 29.4733 71.662 29.18C72.3287 28.8867 73.1087 28.74 74.002 28.74C75.322 28.74 76.3754 29.0733 77.162 29.74C77.9487 30.3933 78.382 31.28 78.462 32.4H75.782C75.742 31.96 75.5554 31.6133 75.222 31.36C74.902 31.0933 74.4687 30.96 73.922 30.96C73.4154 30.96 73.022 31.0533 72.742 31.24C72.4754 31.4267 72.342 31.6867 72.342 32.02C72.342 32.3933 72.5287 32.68 72.902 32.88C73.2754 33.0667 73.8554 33.26 74.642 33.46C75.442 33.66 76.102 33.8667 76.622 34.08C77.142 34.2933 77.5887 34.6267 77.962 35.08C78.3487 35.52 78.5487 36.1067 78.562 36.84C78.562 37.48 78.382 38.0533 78.022 38.56C77.6754 39.0667 77.1687 39.4667 76.502 39.76C75.8487 40.04 75.082 40.18 74.202 40.18ZM84.9061 34.42C84.9061 33.3 85.1261 32.3067 85.5661 31.44C86.0194 30.5733 86.6261 29.9067 87.3861 29.44C88.1594 28.9733 89.0194 28.74 89.9661 28.74C90.7928 28.74 91.5128 28.9067 92.1261 29.24C92.7528 29.5733 93.2528 29.9933 93.6261 30.5V28.92H96.4461V40H93.6261V38.38C93.2661 38.9 92.7661 39.3333 92.1261 39.68C91.4994 40.0133 90.7728 40.18 89.9461 40.18C89.0128 40.18 88.1594 39.94 87.3861 39.46C86.6261 38.98 86.0194 38.3067 85.5661 37.44C85.1261 36.56 84.9061 35.5533 84.9061 34.42ZM93.6261 34.46C93.6261 33.78 93.4928 33.2 93.2261 32.72C92.9594 32.2267 92.5994 31.8533 92.1461 31.6C91.6928 31.3333 91.2061 31.2 90.6861 31.2C90.1661 31.2 89.6861 31.3267 89.2461 31.58C88.8061 31.8333 88.4461 32.2067 88.1661 32.7C87.8994 33.18 87.7661 33.7533 87.7661 34.42C87.7661 35.0867 87.8994 35.6733 88.1661 36.18C88.4461 36.6733 88.8061 37.0533 89.2461 37.32C89.6994 37.5867 90.1794 37.72 90.6861 37.72C91.2061 37.72 91.6928 37.5933 92.1461 37.34C92.5994 37.0733 92.9594 36.7 93.2261 36.22C93.4928 35.7267 93.6261 35.14 93.6261 34.46ZM101.981 25.2V40H99.1808V25.2H101.981ZM107.547 25.2V40H104.747V25.2H107.547ZM124.925 31.22H122.985V40H120.145V31.22H118.885V28.92H120.145V28.36C120.145 27 120.532 26 121.305 25.36C122.078 24.72 123.245 24.42 124.805 24.46V26.82C124.125 26.8067 123.652 26.92 123.385 27.16C123.118 27.4 122.985 27.8333 122.985 28.46V28.92H124.925V31.22ZM131.659 40.18C130.593 40.18 129.633 39.9467 128.779 39.48C127.926 39 127.253 38.3267 126.759 37.46C126.279 36.5933 126.039 35.5933 126.039 34.46C126.039 33.3267 126.286 32.3267 126.779 31.46C127.286 30.5933 127.973 29.9267 128.839 29.46C129.706 28.98 130.673 28.74 131.739 28.74C132.806 28.74 133.773 28.98 134.639 29.46C135.506 29.9267 136.186 30.5933 136.679 31.46C137.186 32.3267 137.439 33.3267 137.439 34.46C137.439 35.5933 137.179 36.5933 136.659 37.46C136.153 38.3267 135.459 39 134.579 39.48C133.713 39.9467 132.739 40.18 131.659 40.18ZM131.659 37.74C132.166 37.74 132.639 37.62 133.079 37.38C133.533 37.1267 133.893 36.7533 134.159 36.26C134.426 35.7667 134.559 35.1667 134.559 34.46C134.559 33.4067 134.279 32.6 133.719 32.04C133.173 31.4667 132.499 31.18 131.699 31.18C130.899 31.18 130.226 31.4667 129.679 32.04C129.146 32.6 128.879 33.4067 128.879 34.46C128.879 35.5133 129.139 36.3267 129.659 36.9C130.193 37.46 130.859 37.74 131.659 37.74ZM142.293 25.2V40H139.493V25.2H142.293ZM151.62 40L147.86 35.28V40H145.06V25.2H147.86V33.62L151.58 28.92H155.22L150.34 34.48L155.26 40H151.62ZM160.979 40.18C160.073 40.18 159.259 40.02 158.539 39.7C157.819 39.3667 157.246 38.92 156.819 38.36C156.406 37.8 156.179 37.18 156.139 36.5H158.959C159.013 36.9267 159.219 37.28 159.579 37.56C159.953 37.84 160.413 37.98 160.959 37.98C161.493 37.98 161.906 37.8733 162.199 37.66C162.506 37.4467 162.659 37.1733 162.659 36.84C162.659 36.48 162.473 36.2133 162.099 36.04C161.739 35.8533 161.159 35.6533 160.359 35.44C159.533 35.24 158.853 35.0333 158.319 34.82C157.799 34.6067 157.346 34.28 156.959 33.84C156.586 33.4 156.399 32.8067 156.399 32.06C156.399 31.4467 156.573 30.8867 156.919 30.38C157.279 29.8733 157.786 29.4733 158.439 29.18C159.106 28.8867 159.886 28.74 160.779 28.74C162.099 28.74 163.153 29.0733 163.939 29.74C164.726 30.3933 165.159 31.28 165.239 32.4H162.559C162.519 31.96 162.333 31.6133 161.999 31.36C161.679 31.0933 161.246 30.96 160.699 30.96C160.193 30.96 159.799 31.0533 159.519 31.24C159.253 31.4267 159.119 31.6867 159.119 32.02C159.119 32.3933 159.306 32.68 159.679 32.88C160.053 33.0667 160.633 33.26 161.419 33.46C162.219 33.66 162.879 33.8667 163.399 34.08C163.919 34.2933 164.366 34.6267 164.739 35.08C165.126 35.52 165.326 36.1067 165.339 36.84C165.339 37.48 165.159 38.0533 164.799 38.56C164.453 39.0667 163.946 39.4667 163.279 39.76C162.626 40.04 161.859 40.18 160.979 40.18ZM171.258 25.8L170.938 35.46H168.578L168.238 25.8H171.258ZM169.818 40.14C169.311 40.14 168.891 39.9867 168.558 39.68C168.238 39.36 168.078 38.9667 168.078 38.5C168.078 38.0333 168.238 37.6467 168.558 37.34C168.891 37.02 169.311 36.86 169.818 36.86C170.311 36.86 170.718 37.02 171.038 37.34C171.358 37.6467 171.518 38.0333 171.518 38.5C171.518 38.9667 171.358 39.36 171.038 39.68C170.718 39.9867 170.311 40.14 169.818 40.14ZM31.295 55.545L28.265 66H26.735L24.305 57.585L21.785 66L20.27 66.015L17.345 55.545H18.8L21.08 64.41L23.6 55.545H25.13L27.53 64.38L29.825 55.545H31.295ZM32.2788 61.86C32.2788 61.02 32.4488 60.285 32.7888 59.655C33.1288 59.015 33.5938 58.52 34.1838 58.17C34.7838 57.82 35.4488 57.645 36.1788 57.645C36.8988 57.645 37.5238 57.8 38.0538 58.11C38.5838 58.42 38.9788 58.81 39.2388 59.28V57.78H40.6188V66H39.2388V64.47C38.9688 64.95 38.5638 65.35 38.0238 65.67C37.4938 65.98 36.8738 66.135 36.1638 66.135C35.4338 66.135 34.7738 65.955 34.1838 65.595C33.5938 65.235 33.1288 64.73 32.7888 64.08C32.4488 63.43 32.2788 62.69 32.2788 61.86ZM39.2388 61.875C39.2388 61.255 39.1138 60.715 38.8638 60.255C38.6138 59.795 38.2738 59.445 37.8438 59.205C37.4238 58.955 36.9588 58.83 36.4488 58.83C35.9388 58.83 35.4738 58.95 35.0538 59.19C34.6338 59.43 34.2988 59.78 34.0488 60.24C33.7988 60.7 33.6738 61.24 33.6738 61.86C33.6738 62.49 33.7988 63.04 34.0488 63.51C34.2988 63.97 34.6338 64.325 35.0538 64.575C35.4738 64.815 35.9388 64.935 36.4488 64.935C36.9588 64.935 37.4238 64.815 37.8438 64.575C38.2738 64.325 38.6138 63.97 38.8638 63.51C39.1138 63.04 39.2388 62.495 39.2388 61.875ZM46.9305 57.63C47.9305 57.63 48.7405 57.935 49.3605 58.545C49.9805 59.145 50.2905 60.015 50.2905 61.155V66H48.9405V61.35C48.9405 60.53 48.7355 59.905 48.3255 59.475C47.9155 59.035 47.3555 58.815 46.6455 58.815C45.9255 58.815 45.3505 59.04 44.9205 59.49C44.5005 59.94 44.2905 60.595 44.2905 61.455V66H42.9255V57.78H44.2905V58.95C44.5605 58.53 44.9255 58.205 45.3855 57.975C45.8555 57.745 46.3705 57.63 46.9305 57.63ZM54.1852 58.905V63.75C54.1852 64.15 54.2702 64.435 54.4402 64.605C54.6102 64.765 54.9052 64.845 55.3252 64.845H56.3302V66H55.1002C54.3402 66 53.7702 65.825 53.3902 65.475C53.0102 65.125 52.8202 64.55 52.8202 63.75V58.905H51.7552V57.78H52.8202V55.71H54.1852V57.78H56.3302V58.905H54.1852ZM63.6481 58.905V63.75C63.6481 64.15 63.7331 64.435 63.9031 64.605C64.0731 64.765 64.3681 64.845 64.7881 64.845H65.7931V66H64.5631C63.8031 66 63.2331 65.825 62.8531 65.475C62.4731 65.125 62.2831 64.55 62.2831 63.75V58.905H61.2181V57.78H62.2831V55.71H63.6481V57.78H65.7931V58.905H63.6481ZM71.032 66.135C70.262 66.135 69.562 65.96 68.932 65.61C68.312 65.26 67.822 64.765 67.462 64.125C67.112 63.475 66.937 62.725 66.937 61.875C66.937 61.035 67.117 60.295 67.477 59.655C67.847 59.005 68.347 58.51 68.977 58.17C69.607 57.82 70.312 57.645 71.092 57.645C71.872 57.645 72.577 57.82 73.207 58.17C73.837 58.51 74.332 59 74.692 59.64C75.062 60.28 75.247 61.025 75.247 61.875C75.247 62.725 75.057 63.475 74.677 64.125C74.307 64.765 73.802 65.26 73.162 65.61C72.522 65.96 71.812 66.135 71.032 66.135ZM71.032 64.935C71.522 64.935 71.982 64.82 72.412 64.59C72.842 64.36 73.187 64.015 73.447 63.555C73.717 63.095 73.852 62.535 73.852 61.875C73.852 61.215 73.722 60.655 73.462 60.195C73.202 59.735 72.862 59.395 72.442 59.175C72.022 58.945 71.567 58.83 71.077 58.83C70.577 58.83 70.117 58.945 69.697 59.175C69.287 59.395 68.957 59.735 68.707 60.195C68.457 60.655 68.332 61.215 68.332 61.875C68.332 62.545 68.452 63.11 68.692 63.57C68.942 64.03 69.272 64.375 69.682 64.605C70.092 64.825 70.542 64.935 71.032 64.935ZM85.1207 57.63C85.7407 57.63 86.3007 57.765 86.8007 58.035C87.3007 58.295 87.6907 58.69 87.9707 59.22C88.2607 59.75 88.4057 60.395 88.4057 61.155V66H87.0557V61.35C87.0557 60.53 86.8507 59.905 86.4407 59.475C86.0307 59.035 85.4707 58.815 84.7607 58.815C84.0407 58.815 83.4657 59.04 83.0357 59.49C82.6157 59.94 82.4057 60.595 82.4057 61.455V66H81.0407V54.9H82.4057V58.95C82.6757 58.53 83.0457 58.205 83.5157 57.975C83.9957 57.745 84.5307 57.63 85.1207 57.63ZM98.1355 61.575C98.1355 61.835 98.1205 62.11 98.0905 62.4H91.5205C91.5705 63.21 91.8455 63.845 92.3455 64.305C92.8555 64.755 93.4705 64.98 94.1905 64.98C94.7805 64.98 95.2705 64.845 95.6605 64.575C96.0605 64.295 96.3405 63.925 96.5005 63.465H97.9705C97.7505 64.255 97.3105 64.9 96.6505 65.4C95.9905 65.89 95.1705 66.135 94.1905 66.135C93.4105 66.135 92.7105 65.96 92.0905 65.61C91.4805 65.26 91.0005 64.765 90.6505 64.125C90.3005 63.475 90.1255 62.725 90.1255 61.875C90.1255 61.025 90.2955 60.28 90.6355 59.64C90.9755 59 91.4505 58.51 92.0605 58.17C92.6805 57.82 93.3905 57.645 94.1905 57.645C94.9705 57.645 95.6605 57.815 96.2605 58.155C96.8605 58.495 97.3205 58.965 97.6405 59.565C97.9705 60.155 98.1355 60.825 98.1355 61.575ZM96.7255 61.29C96.7255 60.77 96.6105 60.325 96.3805 59.955C96.1505 59.575 95.8355 59.29 95.4355 59.1C95.0455 58.9 94.6105 58.8 94.1305 58.8C93.4405 58.8 92.8505 59.02 92.3605 59.46C91.8805 59.9 91.6055 60.51 91.5355 61.29H96.7255ZM99.4272 61.86C99.4272 61.02 99.5972 60.285 99.9372 59.655C100.277 59.015 100.742 58.52 101.332 58.17C101.932 57.82 102.597 57.645 103.327 57.645C104.047 57.645 104.672 57.8 105.202 58.11C105.732 58.42 106.127 58.81 106.387 59.28V57.78H107.767V66H106.387V64.47C106.117 64.95 105.712 65.35 105.172 65.67C104.642 65.98 104.022 66.135 103.312 66.135C102.582 66.135 101.922 65.955 101.332 65.595C100.742 65.235 100.277 64.73 99.9372 64.08C99.5972 63.43 99.4272 62.69 99.4272 61.86ZM106.387 61.875C106.387 61.255 106.262 60.715 106.012 60.255C105.762 59.795 105.422 59.445 104.992 59.205C104.572 58.955 104.107 58.83 103.597 58.83C103.087 58.83 102.622 58.95 102.202 59.19C101.782 59.43 101.447 59.78 101.197 60.24C100.947 60.7 100.822 61.24 100.822 61.86C100.822 62.49 100.947 63.04 101.197 63.51C101.447 63.97 101.782 64.325 102.202 64.575C102.622 64.815 103.087 64.935 103.597 64.935C104.107 64.935 104.572 64.815 104.992 64.575C105.422 64.325 105.762 63.97 106.012 63.51C106.262 63.04 106.387 62.495 106.387 61.875ZM111.439 59.115C111.679 58.645 112.019 58.28 112.459 58.02C112.909 57.76 113.454 57.63 114.094 57.63V59.04H113.734C112.204 59.04 111.439 59.87 111.439 61.53V66H110.074V57.78H111.439V59.115ZM129.554 57.63C130.194 57.63 130.764 57.765 131.264 58.035C131.764 58.295 132.159 58.69 132.449 59.22C132.739 59.75 132.884 60.395 132.884 61.155V66H131.534V61.35C131.534 60.53 131.329 59.905 130.919 59.475C130.519 59.035 129.974 58.815 129.284 58.815C128.574 58.815 128.009 59.045 127.589 59.505C127.169 59.955 126.959 60.61 126.959 61.47V66H125.609V61.35C125.609 60.53 125.404 59.905 124.994 59.475C124.594 59.035 124.049 58.815 123.359 58.815C122.649 58.815 122.084 59.045 121.664 59.505C121.244 59.955 121.034 60.61 121.034 61.47V66H119.669V57.78H121.034V58.965C121.304 58.535 121.664 58.205 122.114 57.975C122.574 57.745 123.079 57.63 123.629 57.63C124.319 57.63 124.929 57.785 125.459 58.095C125.989 58.405 126.384 58.86 126.644 59.46C126.874 58.88 127.254 58.43 127.784 58.11C128.314 57.79 128.904 57.63 129.554 57.63ZM138.708 66.135C137.938 66.135 137.238 65.96 136.608 65.61C135.988 65.26 135.498 64.765 135.138 64.125C134.788 63.475 134.613 62.725 134.613 61.875C134.613 61.035 134.793 60.295 135.153 59.655C135.523 59.005 136.023 58.51 136.653 58.17C137.283 57.82 137.988 57.645 138.768 57.645C139.548 57.645 140.253 57.82 140.883 58.17C141.513 58.51 142.008 59 142.368 59.64C142.738 60.28 142.923 61.025 142.923 61.875C142.923 62.725 142.733 63.475 142.353 64.125C141.983 64.765 141.478 65.26 140.838 65.61C140.198 65.96 139.488 66.135 138.708 66.135ZM138.708 64.935C139.198 64.935 139.658 64.82 140.088 64.59C140.518 64.36 140.863 64.015 141.123 63.555C141.393 63.095 141.528 62.535 141.528 61.875C141.528 61.215 141.398 60.655 141.138 60.195C140.878 59.735 140.538 59.395 140.118 59.175C139.698 58.945 139.243 58.83 138.753 58.83C138.253 58.83 137.793 58.945 137.373 59.175C136.963 59.395 136.633 59.735 136.383 60.195C136.133 60.655 136.008 61.215 136.008 61.875C136.008 62.545 136.128 63.11 136.368 63.57C136.618 64.03 136.948 64.375 137.358 64.605C137.768 64.825 138.218 64.935 138.708 64.935ZM146.083 59.115C146.323 58.645 146.663 58.28 147.103 58.02C147.553 57.76 148.098 57.63 148.738 57.63V59.04H148.378C146.848 59.04 146.083 59.87 146.083 61.53V66H144.718V57.78H146.083V59.115ZM157.813 61.575C157.813 61.835 157.798 62.11 157.768 62.4H151.198C151.248 63.21 151.523 63.845 152.023 64.305C152.533 64.755 153.148 64.98 153.868 64.98C154.458 64.98 154.948 64.845 155.338 64.575C155.738 64.295 156.018 63.925 156.178 63.465H157.648C157.428 64.255 156.988 64.9 156.328 65.4C155.668 65.89 154.848 66.135 153.868 66.135C153.088 66.135 152.388 65.96 151.768 65.61C151.158 65.26 150.678 64.765 150.328 64.125C149.978 63.475 149.803 62.725 149.803 61.875C149.803 61.025 149.973 60.28 150.313 59.64C150.653 59 151.128 58.51 151.738 58.17C152.358 57.82 153.068 57.645 153.868 57.645C154.648 57.645 155.338 57.815 155.938 58.155C156.538 58.495 156.998 58.965 157.318 59.565C157.648 60.155 157.813 60.825 157.813 61.575ZM156.403 61.29C156.403 60.77 156.288 60.325 156.058 59.955C155.828 59.575 155.513 59.29 155.113 59.1C154.723 58.9 154.288 58.8 153.808 58.8C153.118 58.8 152.528 59.02 152.038 59.46C151.558 59.9 151.283 60.51 151.213 61.29H156.403ZM167.199 66.135C166.429 66.135 165.729 65.96 165.099 65.61C164.479 65.26 163.989 64.765 163.629 64.125C163.279 63.475 163.104 62.725 163.104 61.875C163.104 61.035 163.284 60.295 163.644 59.655C164.014 59.005 164.514 58.51 165.144 58.17C165.774 57.82 166.479 57.645 167.259 57.645C168.039 57.645 168.744 57.82 169.374 58.17C170.004 58.51 170.499 59 170.859 59.64C171.229 60.28 171.414 61.025 171.414 61.875C171.414 62.725 171.224 63.475 170.844 64.125C170.474 64.765 169.969 65.26 169.329 65.61C168.689 65.96 167.979 66.135 167.199 66.135ZM167.199 64.935C167.689 64.935 168.149 64.82 168.579 64.59C169.009 64.36 169.354 64.015 169.614 63.555C169.884 63.095 170.019 62.535 170.019 61.875C170.019 61.215 169.889 60.655 169.629 60.195C169.369 59.735 169.029 59.395 168.609 59.175C168.189 58.945 167.734 58.83 167.244 58.83C166.744 58.83 166.284 58.945 165.864 59.175C165.454 59.395 165.124 59.735 164.874 60.195C164.624 60.655 164.499 61.215 164.499 61.875C164.499 62.545 164.619 63.11 164.859 63.57C165.109 64.03 165.439 64.375 165.849 64.605C166.259 64.825 166.709 64.935 167.199 64.935ZM176.554 58.905H174.829V66H173.464V58.905H172.399V57.78H173.464V57.195C173.464 56.275 173.699 55.605 174.169 55.185C174.649 54.755 175.414 54.54 176.464 54.54V55.68C175.864 55.68 175.439 55.8 175.189 56.04C174.949 56.27 174.829 56.655 174.829 57.195V57.78H176.554V58.905ZM185.054 66.135C184.424 66.135 183.859 66.03 183.359 65.82C182.859 65.6 182.464 65.3 182.174 64.92C181.884 64.53 181.724 64.085 181.694 63.585H183.104C183.144 63.995 183.334 64.33 183.674 64.59C184.024 64.85 184.479 64.98 185.039 64.98C185.559 64.98 185.969 64.865 186.269 64.635C186.569 64.405 186.719 64.115 186.719 63.765C186.719 63.405 186.559 63.14 186.239 62.97C185.919 62.79 185.424 62.615 184.754 62.445C184.144 62.285 183.644 62.125 183.254 61.965C182.874 61.795 182.544 61.55 182.264 61.23C181.994 60.9 181.859 60.47 181.859 59.94C181.859 59.52 181.984 59.135 182.234 58.785C182.484 58.435 182.839 58.16 183.299 57.96C183.759 57.75 184.284 57.645 184.874 57.645C185.784 57.645 186.519 57.875 187.079 58.335C187.639 58.795 187.939 59.425 187.979 60.225H186.614C186.584 59.795 186.409 59.45 186.089 59.19C185.779 58.93 185.359 58.8 184.829 58.8C184.339 58.8 183.949 58.905 183.659 59.115C183.369 59.325 183.224 59.6 183.224 59.94C183.224 60.21 183.309 60.435 183.479 60.615C183.659 60.785 183.879 60.925 184.139 61.035C184.409 61.135 184.779 61.25 185.249 61.38C185.839 61.54 186.319 61.7 186.689 61.86C187.059 62.01 187.374 62.24 187.634 62.55C187.904 62.86 188.044 63.265 188.054 63.765C188.054 64.215 187.929 64.62 187.679 64.98C187.429 65.34 187.074 65.625 186.614 65.835C186.164 66.035 185.644 66.135 185.054 66.135ZM193.566 66.135C192.796 66.135 192.096 65.96 191.466 65.61C190.846 65.26 190.356 64.765 189.996 64.125C189.646 63.475 189.471 62.725 189.471 61.875C189.471 61.035 189.651 60.295 190.011 59.655C190.381 59.005 190.881 58.51 191.511 58.17C192.141 57.82 192.846 57.645 193.626 57.645C194.406 57.645 195.111 57.82 195.741 58.17C196.371 58.51 196.866 59 197.226 59.64C197.596 60.28 197.781 61.025 197.781 61.875C197.781 62.725 197.591 63.475 197.211 64.125C196.841 64.765 196.336 65.26 195.696 65.61C195.056 65.96 194.346 66.135 193.566 66.135ZM193.566 64.935C194.056 64.935 194.516 64.82 194.946 64.59C195.376 64.36 195.721 64.015 195.981 63.555C196.251 63.095 196.386 62.535 196.386 61.875C196.386 61.215 196.256 60.655 195.996 60.195C195.736 59.735 195.396 59.395 194.976 59.175C194.556 58.945 194.101 58.83 193.611 58.83C193.111 58.83 192.651 58.945 192.231 59.175C191.821 59.395 191.491 59.735 191.241 60.195C190.991 60.655 190.866 61.215 190.866 61.875C190.866 62.545 190.986 63.11 191.226 63.57C191.476 64.03 191.806 64.375 192.216 64.605C192.626 64.825 193.076 64.935 193.566 64.935ZM209.461 57.63C210.101 57.63 210.671 57.765 211.171 58.035C211.671 58.295 212.066 58.69 212.356 59.22C212.646 59.75 212.791 60.395 212.791 61.155V66H211.441V61.35C211.441 60.53 211.236 59.905 210.826 59.475C210.426 59.035 209.881 58.815 209.191 58.815C208.481 58.815 207.916 59.045 207.496 59.505C207.076 59.955 206.866 60.61 206.866 61.47V66H205.516V61.35C205.516 60.53 205.311 59.905 204.901 59.475C204.501 59.035 203.956 58.815 203.266 58.815C202.556 58.815 201.991 59.045 201.571 59.505C201.151 59.955 200.941 60.61 200.941 61.47V66H199.576V57.78H200.941V58.965C201.211 58.535 201.571 58.205 202.021 57.975C202.481 57.745 202.986 57.63 203.536 57.63C204.226 57.63 204.836 57.785 205.366 58.095C205.896 58.405 206.291 58.86 206.551 59.46C206.781 58.88 207.161 58.43 207.691 58.11C208.221 57.79 208.811 57.63 209.461 57.63ZM222.53 61.575C222.53 61.835 222.515 62.11 222.485 62.4H215.915C215.965 63.21 216.24 63.845 216.74 64.305C217.25 64.755 217.865 64.98 218.585 64.98C219.175 64.98 219.665 64.845 220.055 64.575C220.455 64.295 220.735 63.925 220.895 63.465H222.365C222.145 64.255 221.705 64.9 221.045 65.4C220.385 65.89 219.565 66.135 218.585 66.135C217.805 66.135 217.105 65.96 216.485 65.61C215.875 65.26 215.395 64.765 215.045 64.125C214.695 63.475 214.52 62.725 214.52 61.875C214.52 61.025 214.69 60.28 215.03 59.64C215.37 59 215.845 58.51 216.455 58.17C217.075 57.82 217.785 57.645 218.585 57.645C219.365 57.645 220.055 57.815 220.655 58.155C221.255 58.495 221.715 58.965 222.035 59.565C222.365 60.155 222.53 60.825 222.53 61.575ZM221.12 61.29C221.12 60.77 221.005 60.325 220.775 59.955C220.545 59.575 220.23 59.29 219.83 59.1C219.44 58.9 219.005 58.8 218.525 58.8C217.835 58.8 217.245 59.02 216.755 59.46C216.275 59.9 216 60.51 215.93 61.29H221.12ZM229.996 58.905V63.75C229.996 64.15 230.081 64.435 230.251 64.605C230.421 64.765 230.716 64.845 231.136 64.845H232.141V66H230.911C230.151 66 229.581 65.825 229.201 65.475C228.821 65.125 228.631 64.55 228.631 63.75V58.905H227.566V57.78H228.631V55.71H229.996V57.78H232.141V58.905H229.996ZM237.875 57.63C238.495 57.63 239.055 57.765 239.555 58.035C240.055 58.295 240.445 58.69 240.725 59.22C241.015 59.75 241.16 60.395 241.16 61.155V66H239.81V61.35C239.81 60.53 239.605 59.905 239.195 59.475C238.785 59.035 238.225 58.815 237.515 58.815C236.795 58.815 236.22 59.04 235.79 59.49C235.37 59.94 235.16 60.595 235.16 61.455V66H233.795V54.9H235.16V58.95C235.43 58.53 235.8 58.205 236.27 57.975C236.75 57.745 237.285 57.63 237.875 57.63ZM244.094 56.445C243.834 56.445 243.614 56.355 243.434 56.175C243.254 55.995 243.164 55.775 243.164 55.515C243.164 55.255 243.254 55.035 243.434 54.855C243.614 54.675 243.834 54.585 244.094 54.585C244.344 54.585 244.554 54.675 244.724 54.855C244.904 55.035 244.994 55.255 244.994 55.515C244.994 55.775 244.904 55.995 244.724 56.175C244.554 56.355 244.344 56.445 244.094 56.445ZM244.754 57.78V66H243.389V57.78H244.754ZM251.086 57.63C252.086 57.63 252.896 57.935 253.516 58.545C254.136 59.145 254.446 60.015 254.446 61.155V66H253.096V61.35C253.096 60.53 252.891 59.905 252.481 59.475C252.071 59.035 251.511 58.815 250.801 58.815C250.081 58.815 249.506 59.04 249.076 59.49C248.656 59.94 248.446 60.595 248.446 61.455V66H247.081V57.78H248.446V58.95C248.716 58.53 249.081 58.205 249.541 57.975C250.011 57.745 250.526 57.63 251.086 57.63ZM260.066 57.645C260.776 57.645 261.396 57.8 261.926 58.11C262.466 58.42 262.866 58.81 263.126 59.28V57.78H264.506V66.18C264.506 66.93 264.346 67.595 264.026 68.175C263.706 68.765 263.246 69.225 262.646 69.555C262.056 69.885 261.366 70.05 260.576 70.05C259.496 70.05 258.596 69.795 257.876 69.285C257.156 68.775 256.731 68.08 256.601 67.2H257.951C258.101 67.7 258.411 68.1 258.881 68.4C259.351 68.71 259.916 68.865 260.576 68.865C261.326 68.865 261.936 68.63 262.406 68.16C262.886 67.69 263.126 67.03 263.126 66.18V64.455C262.856 64.935 262.456 65.335 261.926 65.655C261.396 65.975 260.776 66.135 260.066 66.135C259.336 66.135 258.671 65.955 258.071 65.595C257.481 65.235 257.016 64.73 256.676 64.08C256.336 63.43 256.166 62.69 256.166 61.86C256.166 61.02 256.336 60.285 256.676 59.655C257.016 59.015 257.481 58.52 258.071 58.17C258.671 57.82 259.336 57.645 260.066 57.645ZM263.126 61.875C263.126 61.255 263.001 60.715 262.751 60.255C262.501 59.795 262.161 59.445 261.731 59.205C261.311 58.955 260.846 58.83 260.336 58.83C259.826 58.83 259.361 58.95 258.941 59.19C258.521 59.43 258.186 59.78 257.936 60.24C257.686 60.7 257.561 61.24 257.561 61.86C257.561 62.49 257.686 63.04 257.936 63.51C258.186 63.97 258.521 64.325 258.941 64.575C259.361 64.815 259.826 64.935 260.336 64.935C260.846 64.935 261.311 64.815 261.731 64.575C262.161 64.325 262.501 63.97 262.751 63.51C263.001 63.04 263.126 62.495 263.126 61.875ZM269.722 66.135C269.092 66.135 268.527 66.03 268.027 65.82C267.527 65.6 267.132 65.3 266.842 64.92C266.552 64.53 266.392 64.085 266.362 63.585H267.772C267.812 63.995 268.002 64.33 268.342 64.59C268.692 64.85 269.147 64.98 269.707 64.98C270.227 64.98 270.637 64.865 270.937 64.635C271.237 64.405 271.387 64.115 271.387 63.765C271.387 63.405 271.227 63.14 270.907 62.97C270.587 62.79 270.092 62.615 269.422 62.445C268.812 62.285 268.312 62.125 267.922 61.965C267.542 61.795 267.212 61.55 266.932 61.23C266.662 60.9 266.527 60.47 266.527 59.94C266.527 59.52 266.652 59.135 266.902 58.785C267.152 58.435 267.507 58.16 267.967 57.96C268.427 57.75 268.952 57.645 269.542 57.645C270.452 57.645 271.187 57.875 271.747 58.335C272.307 58.795 272.607 59.425 272.647 60.225H271.282C271.252 59.795 271.077 59.45 270.757 59.19C270.447 58.93 270.027 58.8 269.497 58.8C269.007 58.8 268.617 58.905 268.327 59.115C268.037 59.325 267.892 59.6 267.892 59.94C267.892 60.21 267.977 60.435 268.147 60.615C268.327 60.785 268.547 60.925 268.807 61.035C269.077 61.135 269.447 61.25 269.917 61.38C270.507 61.54 270.987 61.7 271.357 61.86C271.727 62.01 272.042 62.24 272.302 62.55C272.572 62.86 272.712 63.265 272.722 63.765C272.722 64.215 272.597 64.62 272.347 64.98C272.097 65.34 271.742 65.625 271.282 65.835C270.832 66.035 270.312 66.135 269.722 66.135ZM277.319 55.41C278.309 55.41 279.109 55.69 279.719 56.25C280.329 56.81 280.634 57.56 280.634 58.5C280.634 59.55 280.309 60.33 279.659 60.84C279.009 61.34 278.129 61.59 277.019 61.59L276.974 63.015H275.789L275.729 60.645H276.164C277.154 60.645 277.929 60.495 278.489 60.195C279.049 59.895 279.329 59.33 279.329 58.5C279.329 57.9 279.149 57.425 278.789 57.075C278.429 56.725 277.944 56.55 277.334 56.55C276.714 56.55 276.224 56.72 275.864 57.06C275.514 57.39 275.339 57.845 275.339 58.425H274.049C274.049 57.825 274.184 57.3 274.454 56.85C274.724 56.39 275.104 56.035 275.594 55.785C276.094 55.535 276.669 55.41 277.319 55.41ZM276.374 66.09C276.114 66.09 275.894 66 275.714 65.82C275.534 65.64 275.444 65.42 275.444 65.16C275.444 64.9 275.534 64.68 275.714 64.5C275.894 64.32 276.114 64.23 276.374 64.23C276.624 64.23 276.834 64.32 277.004 64.5C277.184 64.68 277.274 64.9 277.274 65.16C277.274 65.42 277.184 65.64 277.004 65.82C276.834 66 276.624 66.09 276.374 66.09ZM287.879 64.89H291.539V66H286.514V55.545H287.879V64.89ZM300.489 61.575C300.489 61.835 300.474 62.11 300.444 62.4H293.874C293.924 63.21 294.199 63.845 294.699 64.305C295.209 64.755 295.824 64.98 296.544 64.98C297.134 64.98 297.624 64.845 298.014 64.575C298.414 64.295 298.694 63.925 298.854 63.465H300.324C300.104 64.255 299.664 64.9 299.004 65.4C298.344 65.89 297.524 66.135 296.544 66.135C295.764 66.135 295.064 65.96 294.444 65.61C293.834 65.26 293.354 64.765 293.004 64.125C292.654 63.475 292.479 62.725 292.479 61.875C292.479 61.025 292.649 60.28 292.989 59.64C293.329 59 293.804 58.51 294.414 58.17C295.034 57.82 295.744 57.645 296.544 57.645C297.324 57.645 298.014 57.815 298.614 58.155C299.214 58.495 299.674 58.965 299.994 59.565C300.324 60.155 300.489 60.825 300.489 61.575ZM299.079 61.29C299.079 60.77 298.964 60.325 298.734 59.955C298.504 59.575 298.189 59.29 297.789 59.1C297.399 58.9 296.964 58.8 296.484 58.8C295.794 58.8 295.204 59.02 294.714 59.46C294.234 59.9 293.959 60.51 293.889 61.29H299.079ZM305.201 66.135C304.571 66.135 304.006 66.03 303.506 65.82C303.006 65.6 302.611 65.3 302.321 64.92C302.031 64.53 301.871 64.085 301.841 63.585H303.251C303.291 63.995 303.481 64.33 303.821 64.59C304.171 64.85 304.626 64.98 305.186 64.98C305.706 64.98 306.116 64.865 306.416 64.635C306.716 64.405 306.866 64.115 306.866 63.765C306.866 63.405 306.706 63.14 306.386 62.97C306.066 62.79 305.571 62.615 304.901 62.445C304.291 62.285 303.791 62.125 303.401 61.965C303.021 61.795 302.691 61.55 302.411 61.23C302.141 60.9 302.006 60.47 302.006 59.94C302.006 59.52 302.131 59.135 302.381 58.785C302.631 58.435 302.986 58.16 303.446 57.96C303.906 57.75 304.431 57.645 305.021 57.645C305.931 57.645 306.666 57.875 307.226 58.335C307.786 58.795 308.086 59.425 308.126 60.225H306.761C306.731 59.795 306.556 59.45 306.236 59.19C305.926 58.93 305.506 58.8 304.976 58.8C304.486 58.8 304.096 58.905 303.806 59.115C303.516 59.325 303.371 59.6 303.371 59.94C303.371 60.21 303.456 60.435 303.626 60.615C303.806 60.785 304.026 60.925 304.286 61.035C304.556 61.135 304.926 61.25 305.396 61.38C305.986 61.54 306.466 61.7 306.836 61.86C307.206 62.01 307.521 62.24 307.781 62.55C308.051 62.86 308.191 63.265 308.201 63.765C308.201 64.215 308.076 64.62 307.826 64.98C307.576 65.34 307.221 65.625 306.761 65.835C306.311 66.035 305.791 66.135 305.201 66.135ZM313.038 66.135C312.408 66.135 311.843 66.03 311.343 65.82C310.843 65.6 310.448 65.3 310.158 64.92C309.868 64.53 309.708 64.085 309.678 63.585H311.088C311.128 63.995 311.318 64.33 311.658 64.59C312.008 64.85 312.463 64.98 313.023 64.98C313.543 64.98 313.953 64.865 314.253 64.635C314.553 64.405 314.703 64.115 314.703 63.765C314.703 63.405 314.543 63.14 314.223 62.97C313.903 62.79 313.408 62.615 312.738 62.445C312.128 62.285 311.628 62.125 311.238 61.965C310.858 61.795 310.528 61.55 310.248 61.23C309.978 60.9 309.843 60.47 309.843 59.94C309.843 59.52 309.968 59.135 310.218 58.785C310.468 58.435 310.823 58.16 311.283 57.96C311.743 57.75 312.268 57.645 312.858 57.645C313.768 57.645 314.503 57.875 315.063 58.335C315.623 58.795 315.923 59.425 315.963 60.225H314.598C314.568 59.795 314.393 59.45 314.073 59.19C313.763 58.93 313.343 58.8 312.813 58.8C312.323 58.8 311.933 58.905 311.643 59.115C311.353 59.325 311.208 59.6 311.208 59.94C311.208 60.21 311.293 60.435 311.463 60.615C311.643 60.785 311.863 60.925 312.123 61.035C312.393 61.135 312.763 61.25 313.233 61.38C313.823 61.54 314.303 61.7 314.673 61.86C315.043 62.01 315.358 62.24 315.618 62.55C315.888 62.86 316.028 63.265 316.038 63.765C316.038 64.215 315.913 64.62 315.663 64.98C315.413 65.34 315.058 65.625 314.598 65.835C314.148 66.035 313.628 66.135 313.038 66.135ZM325.549 66.135C324.779 66.135 324.079 65.96 323.449 65.61C322.829 65.26 322.339 64.765 321.979 64.125C321.629 63.475 321.454 62.725 321.454 61.875C321.454 61.035 321.634 60.295 321.994 59.655C322.364 59.005 322.864 58.51 323.494 58.17C324.124 57.82 324.829 57.645 325.609 57.645C326.389 57.645 327.094 57.82 327.724 58.17C328.354 58.51 328.849 59 329.209 59.64C329.579 60.28 329.764 61.025 329.764 61.875C329.764 62.725 329.574 63.475 329.194 64.125C328.824 64.765 328.319 65.26 327.679 65.61C327.039 65.96 326.329 66.135 325.549 66.135ZM325.549 64.935C326.039 64.935 326.499 64.82 326.929 64.59C327.359 64.36 327.704 64.015 327.964 63.555C328.234 63.095 328.369 62.535 328.369 61.875C328.369 61.215 328.239 60.655 327.979 60.195C327.719 59.735 327.379 59.395 326.959 59.175C326.539 58.945 326.084 58.83 325.594 58.83C325.094 58.83 324.634 58.945 324.214 59.175C323.804 59.395 323.474 59.735 323.224 60.195C322.974 60.655 322.849 61.215 322.849 61.875C322.849 62.545 322.969 63.11 323.209 63.57C323.459 64.03 323.789 64.375 324.199 64.605C324.609 64.825 325.059 64.935 325.549 64.935ZM334.903 58.905H333.178V66H331.813V58.905H330.748V57.78H331.813V57.195C331.813 56.275 332.048 55.605 332.518 55.185C332.998 54.755 333.763 54.54 334.813 54.54V55.68C334.213 55.68 333.788 55.8 333.538 56.04C333.298 56.27 333.178 56.655 333.178 57.195V57.78H334.903V58.905ZM344.079 66.135C343.309 66.135 342.609 65.96 341.979 65.61C341.359 65.26 340.869 64.765 340.509 64.125C340.159 63.475 339.984 62.725 339.984 61.875C339.984 61.035 340.164 60.295 340.524 59.655C340.894 59.005 341.394 58.51 342.024 58.17C342.654 57.82 343.359 57.645 344.139 57.645C344.919 57.645 345.624 57.82 346.254 58.17C346.884 58.51 347.379 59 347.739 59.64C348.109 60.28 348.294 61.025 348.294 61.875C348.294 62.725 348.104 63.475 347.724 64.125C347.354 64.765 346.849 65.26 346.209 65.61C345.569 65.96 344.859 66.135 344.079 66.135ZM344.079 64.935C344.569 64.935 345.029 64.82 345.459 64.59C345.889 64.36 346.234 64.015 346.494 63.555C346.764 63.095 346.899 62.535 346.899 61.875C346.899 61.215 346.769 60.655 346.509 60.195C346.249 59.735 345.909 59.395 345.489 59.175C345.069 58.945 344.614 58.83 344.124 58.83C343.624 58.83 343.164 58.945 342.744 59.175C342.334 59.395 342.004 59.735 341.754 60.195C341.504 60.655 341.379 61.215 341.379 61.875C341.379 62.545 341.499 63.11 341.739 63.57C341.989 64.03 342.319 64.375 342.729 64.605C343.139 64.825 343.589 64.935 344.079 64.935ZM351.754 58.905V63.75C351.754 64.15 351.839 64.435 352.009 64.605C352.179 64.765 352.474 64.845 352.894 64.845H353.899V66H352.669C351.909 66 351.339 65.825 350.959 65.475C350.579 65.125 350.389 64.55 350.389 63.75V58.905H349.324V57.78H350.389V55.71H351.754V57.78H353.899V58.905H351.754ZM359.632 57.63C360.252 57.63 360.812 57.765 361.312 58.035C361.812 58.295 362.202 58.69 362.482 59.22C362.772 59.75 362.917 60.395 362.917 61.155V66H361.567V61.35C361.567 60.53 361.362 59.905 360.952 59.475C360.542 59.035 359.982 58.815 359.272 58.815C358.552 58.815 357.977 59.04 357.547 59.49C357.127 59.94 356.917 60.595 356.917 61.455V66H355.552V54.9H356.917V58.95C357.187 58.53 357.557 58.205 358.027 57.975C358.507 57.745 359.042 57.63 359.632 57.63ZM372.647 61.575C372.647 61.835 372.632 62.11 372.602 62.4H366.032C366.082 63.21 366.357 63.845 366.857 64.305C367.367 64.755 367.982 64.98 368.702 64.98C369.292 64.98 369.782 64.845 370.172 64.575C370.572 64.295 370.852 63.925 371.012 63.465H372.482C372.262 64.255 371.822 64.9 371.162 65.4C370.502 65.89 369.682 66.135 368.702 66.135C367.922 66.135 367.222 65.96 366.602 65.61C365.992 65.26 365.512 64.765 365.162 64.125C364.812 63.475 364.637 62.725 364.637 61.875C364.637 61.025 364.807 60.28 365.147 59.64C365.487 59 365.962 58.51 366.572 58.17C367.192 57.82 367.902 57.645 368.702 57.645C369.482 57.645 370.172 57.815 370.772 58.155C371.372 58.495 371.832 58.965 372.152 59.565C372.482 60.155 372.647 60.825 372.647 61.575ZM371.237 61.29C371.237 60.77 371.122 60.325 370.892 59.955C370.662 59.575 370.347 59.29 369.947 59.1C369.557 58.9 369.122 58.8 368.642 58.8C367.952 58.8 367.362 59.02 366.872 59.46C366.392 59.9 366.117 60.51 366.047 61.29H371.237ZM375.814 59.115C376.054 58.645 376.394 58.28 376.834 58.02C377.284 57.76 377.829 57.63 378.469 57.63V59.04H378.109C376.579 59.04 375.814 59.87 375.814 61.53V66H374.449V57.78H375.814V59.115ZM382.955 66.135C382.325 66.135 381.76 66.03 381.26 65.82C380.76 65.6 380.365 65.3 380.075 64.92C379.785 64.53 379.625 64.085 379.595 63.585H381.005C381.045 63.995 381.235 64.33 381.575 64.59C381.925 64.85 382.38 64.98 382.94 64.98C383.46 64.98 383.87 64.865 384.17 64.635C384.47 64.405 384.62 64.115 384.62 63.765C384.62 63.405 384.46 63.14 384.14 62.97C383.82 62.79 383.325 62.615 382.655 62.445C382.045 62.285 381.545 62.125 381.155 61.965C380.775 61.795 380.445 61.55 380.165 61.23C379.895 60.9 379.76 60.47 379.76 59.94C379.76 59.52 379.885 59.135 380.135 58.785C380.385 58.435 380.74 58.16 381.2 57.96C381.66 57.75 382.185 57.645 382.775 57.645C383.685 57.645 384.42 57.875 384.98 58.335C385.54 58.795 385.84 59.425 385.88 60.225H384.515C384.485 59.795 384.31 59.45 383.99 59.19C383.68 58.93 383.26 58.8 382.73 58.8C382.24 58.8 381.85 58.905 381.56 59.115C381.27 59.325 381.125 59.6 381.125 59.94C381.125 60.21 381.21 60.435 381.38 60.615C381.56 60.785 381.78 60.925 382.04 61.035C382.31 61.135 382.68 61.25 383.15 61.38C383.74 61.54 384.22 61.7 384.59 61.86C384.96 62.01 385.275 62.24 385.535 62.55C385.805 62.86 385.945 63.265 385.955 63.765C385.955 64.215 385.83 64.62 385.58 64.98C385.33 65.34 384.975 65.625 384.515 65.835C384.065 66.035 383.545 66.135 382.955 66.135ZM390.552 55.41C391.542 55.41 392.342 55.69 392.952 56.25C393.562 56.81 393.867 57.56 393.867 58.5C393.867 59.55 393.542 60.33 392.892 60.84C392.242 61.34 391.362 61.59 390.252 61.59L390.207 63.015H389.022L388.962 60.645H389.397C390.387 60.645 391.162 60.495 391.722 60.195C392.282 59.895 392.562 59.33 392.562 58.5C392.562 57.9 392.382 57.425 392.022 57.075C391.662 56.725 391.177 56.55 390.567 56.55C389.947 56.55 389.457 56.72 389.097 57.06C388.747 57.39 388.572 57.845 388.572 58.425H387.282C387.282 57.825 387.417 57.3 387.687 56.85C387.957 56.39 388.337 56.035 388.827 55.785C389.327 55.535 389.902 55.41 390.552 55.41ZM389.607 66.09C389.347 66.09 389.127 66 388.947 65.82C388.767 65.64 388.677 65.42 388.677 65.16C388.677 64.9 388.767 64.68 388.947 64.5C389.127 64.32 389.347 64.23 389.607 64.23C389.857 64.23 390.067 64.32 390.237 64.5C390.417 64.68 390.507 64.9 390.507 65.16C390.507 65.42 390.417 65.64 390.237 65.82C390.067 66 389.857 66.09 389.607 66.09ZM405.012 55.545V63.27C405.012 64.13 404.747 64.82 404.217 65.34C403.687 65.85 402.987 66.105 402.117 66.105C401.237 66.105 400.532 65.845 400.002 65.325C399.472 64.795 399.207 64.075 399.207 63.165H400.572C400.582 63.675 400.712 64.09 400.962 64.41C401.222 64.73 401.607 64.89 402.117 64.89C402.627 64.89 403.007 64.74 403.257 64.44C403.507 64.13 403.632 63.74 403.632 63.27V55.545H405.012ZM414.991 57.78V66H413.626V64.785C413.366 65.205 413.001 65.535 412.531 65.775C412.071 66.005 411.561 66.12 411.001 66.12C410.361 66.12 409.786 65.99 409.276 65.73C408.766 65.46 408.361 65.06 408.061 64.53C407.771 64 407.626 63.355 407.626 62.595V57.78H408.976V62.415C408.976 63.225 409.181 63.85 409.591 64.29C410.001 64.72 410.561 64.935 411.271 64.935C412.001 64.935 412.576 64.71 412.996 64.26C413.416 63.81 413.626 63.155 413.626 62.295V57.78H414.991ZM420.206 66.135C419.576 66.135 419.011 66.03 418.511 65.82C418.011 65.6 417.616 65.3 417.326 64.92C417.036 64.53 416.876 64.085 416.846 63.585H418.256C418.296 63.995 418.486 64.33 418.826 64.59C419.176 64.85 419.631 64.98 420.191 64.98C420.711 64.98 421.121 64.865 421.421 64.635C421.721 64.405 421.871 64.115 421.871 63.765C421.871 63.405 421.711 63.14 421.391 62.97C421.071 62.79 420.576 62.615 419.906 62.445C419.296 62.285 418.796 62.125 418.406 61.965C418.026 61.795 417.696 61.55 417.416 61.23C417.146 60.9 417.011 60.47 417.011 59.94C417.011 59.52 417.136 59.135 417.386 58.785C417.636 58.435 417.991 58.16 418.451 57.96C418.911 57.75 419.436 57.645 420.026 57.645C420.936 57.645 421.671 57.875 422.231 58.335C422.791 58.795 423.091 59.425 423.131 60.225H421.766C421.736 59.795 421.561 59.45 421.241 59.19C420.931 58.93 420.511 58.8 419.981 58.8C419.491 58.8 419.101 58.905 418.811 59.115C418.521 59.325 418.376 59.6 418.376 59.94C418.376 60.21 418.461 60.435 418.631 60.615C418.811 60.785 419.031 60.925 419.291 61.035C419.561 61.135 419.931 61.25 420.401 61.38C420.991 61.54 421.471 61.7 421.841 61.86C422.211 62.01 422.526 62.24 422.786 62.55C423.056 62.86 423.196 63.265 423.206 63.765C423.206 64.215 423.081 64.62 422.831 64.98C422.581 65.34 422.226 65.625 421.766 65.835C421.316 66.035 420.796 66.135 420.206 66.135ZM426.798 58.905V63.75C426.798 64.15 426.883 64.435 427.053 64.605C427.223 64.765 427.518 64.845 427.938 64.845H428.943V66H427.713C426.953 66 426.383 65.825 426.003 65.475C425.623 65.125 425.433 64.55 425.433 63.75V58.905H424.368V57.78H425.433V55.71H426.798V57.78H428.943V58.905H426.798ZM445.545 57.78L442.98 66H441.57L439.59 59.475L437.61 66H436.2L433.62 57.78H435.015L436.905 64.68L438.945 57.78H440.34L442.335 64.695L444.195 57.78H445.545ZM446.39 61.86C446.39 61.02 446.56 60.285 446.9 59.655C447.24 59.015 447.705 58.52 448.295 58.17C448.895 57.82 449.56 57.645 450.29 57.645C451.01 57.645 451.635 57.8 452.165 58.11C452.695 58.42 453.09 58.81 453.35 59.28V57.78H454.73V66H453.35V64.47C453.08 64.95 452.675 65.35 452.135 65.67C451.605 65.98 450.985 66.135 450.275 66.135C449.545 66.135 448.885 65.955 448.295 65.595C447.705 65.235 447.24 64.73 446.9 64.08C446.56 63.43 446.39 62.69 446.39 61.86ZM453.35 61.875C453.35 61.255 453.225 60.715 452.975 60.255C452.725 59.795 452.385 59.445 451.955 59.205C451.535 58.955 451.07 58.83 450.56 58.83C450.05 58.83 449.585 58.95 449.165 59.19C448.745 59.43 448.41 59.78 448.16 60.24C447.91 60.7 447.785 61.24 447.785 61.86C447.785 62.49 447.91 63.04 448.16 63.51C448.41 63.97 448.745 64.325 449.165 64.575C449.585 64.815 450.05 64.935 450.56 64.935C451.07 64.935 451.535 64.815 451.955 64.575C452.385 64.325 452.725 63.97 452.975 63.51C453.225 63.04 453.35 62.495 453.35 61.875ZM461.042 57.63C462.042 57.63 462.852 57.935 463.472 58.545C464.092 59.145 464.402 60.015 464.402 61.155V66H463.052V61.35C463.052 60.53 462.847 59.905 462.437 59.475C462.027 59.035 461.467 58.815 460.757 58.815C460.037 58.815 459.462 59.04 459.032 59.49C458.612 59.94 458.402 60.595 458.402 61.455V66H457.037V57.78H458.402V58.95C458.672 58.53 459.037 58.205 459.497 57.975C459.967 57.745 460.482 57.63 461.042 57.63ZM468.297 58.905V63.75C468.297 64.15 468.382 64.435 468.552 64.605C468.722 64.765 469.017 64.845 469.437 64.845H470.442V66H469.212C468.452 66 467.882 65.825 467.502 65.475C467.122 65.125 466.932 64.55 466.932 63.75V58.905H465.867V57.78H466.932V55.71H468.297V57.78H470.442V58.905H468.297ZM477.759 58.905V63.75C477.759 64.15 477.844 64.435 478.014 64.605C478.184 64.765 478.479 64.845 478.899 64.845H479.904V66H478.674C477.914 66 477.344 65.825 476.964 65.475C476.584 65.125 476.394 64.55 476.394 63.75V58.905H475.329V57.78H476.394V55.71H477.759V57.78H479.904V58.905H477.759ZM485.143 66.135C484.373 66.135 483.673 65.96 483.043 65.61C482.423 65.26 481.933 64.765 481.573 64.125C481.223 63.475 481.048 62.725 481.048 61.875C481.048 61.035 481.228 60.295 481.588 59.655C481.958 59.005 482.458 58.51 483.088 58.17C483.718 57.82 484.423 57.645 485.203 57.645C485.983 57.645 486.688 57.82 487.318 58.17C487.948 58.51 488.443 59 488.803 59.64C489.173 60.28 489.358 61.025 489.358 61.875C489.358 62.725 489.168 63.475 488.788 64.125C488.418 64.765 487.913 65.26 487.273 65.61C486.633 65.96 485.923 66.135 485.143 66.135ZM485.143 64.935C485.633 64.935 486.093 64.82 486.523 64.59C486.953 64.36 487.298 64.015 487.558 63.555C487.828 63.095 487.963 62.535 487.963 61.875C487.963 61.215 487.833 60.655 487.573 60.195C487.313 59.735 486.973 59.395 486.553 59.175C486.133 58.945 485.678 58.83 485.188 58.83C484.688 58.83 484.228 58.945 483.808 59.175C483.398 59.395 483.068 59.735 482.818 60.195C482.568 60.655 482.443 61.215 482.443 61.875C482.443 62.545 482.563 63.11 482.803 63.57C483.053 64.03 483.383 64.375 483.793 64.605C484.203 64.825 484.653 64.935 485.143 64.935ZM498.062 66.135C497.432 66.135 496.867 66.03 496.367 65.82C495.867 65.6 495.472 65.3 495.182 64.92C494.892 64.53 494.732 64.085 494.702 63.585H496.112C496.152 63.995 496.342 64.33 496.682 64.59C497.032 64.85 497.487 64.98 498.047 64.98C498.567 64.98 498.977 64.865 499.277 64.635C499.577 64.405 499.727 64.115 499.727 63.765C499.727 63.405 499.567 63.14 499.247 62.97C498.927 62.79 498.432 62.615 497.762 62.445C497.152 62.285 496.652 62.125 496.262 61.965C495.882 61.795 495.552 61.55 495.272 61.23C495.002 60.9 494.867 60.47 494.867 59.94C494.867 59.52 494.992 59.135 495.242 58.785C495.492 58.435 495.847 58.16 496.307 57.96C496.767 57.75 497.292 57.645 497.882 57.645C498.792 57.645 499.527 57.875 500.087 58.335C500.647 58.795 500.947 59.425 500.987 60.225H499.622C499.592 59.795 499.417 59.45 499.097 59.19C498.787 58.93 498.367 58.8 497.837 58.8C497.347 58.8 496.957 58.905 496.667 59.115C496.377 59.325 496.232 59.6 496.232 59.94C496.232 60.21 496.317 60.435 496.487 60.615C496.667 60.785 496.887 60.925 497.147 61.035C497.417 61.135 497.787 61.25 498.257 61.38C498.847 61.54 499.327 61.7 499.697 61.86C500.067 62.01 500.382 62.24 500.642 62.55C500.912 62.86 501.052 63.265 501.062 63.765C501.062 64.215 500.937 64.62 500.687 64.98C500.437 65.34 500.082 65.625 499.622 65.835C499.172 66.035 498.652 66.135 498.062 66.135ZM502.479 61.86C502.479 61.02 502.649 60.285 502.989 59.655C503.329 59.015 503.794 58.52 504.384 58.17C504.984 57.82 505.649 57.645 506.379 57.645C507.099 57.645 507.724 57.8 508.254 58.11C508.784 58.42 509.179 58.81 509.439 59.28V57.78H510.819V66H509.439V64.47C509.169 64.95 508.764 65.35 508.224 65.67C507.694 65.98 507.074 66.135 506.364 66.135C505.634 66.135 504.974 65.955 504.384 65.595C503.794 65.235 503.329 64.73 502.989 64.08C502.649 63.43 502.479 62.69 502.479 61.86ZM509.439 61.875C509.439 61.255 509.314 60.715 509.064 60.255C508.814 59.795 508.474 59.445 508.044 59.205C507.624 58.955 507.159 58.83 506.649 58.83C506.139 58.83 505.674 58.95 505.254 59.19C504.834 59.43 504.499 59.78 504.249 60.24C503.999 60.7 503.874 61.24 503.874 61.86C503.874 62.49 503.999 63.04 504.249 63.51C504.499 63.97 504.834 64.325 505.254 64.575C505.674 64.815 506.139 64.935 506.649 64.935C507.159 64.935 507.624 64.815 508.044 64.575C508.474 64.325 508.814 63.97 509.064 63.51C509.314 63.04 509.439 62.495 509.439 61.875ZM520.206 57.78L515.256 69.87H513.846L515.466 65.91L512.151 57.78H513.666L516.246 64.44L518.796 57.78H520.206ZM529.657 57.63C530.277 57.63 530.837 57.765 531.337 58.035C531.837 58.295 532.227 58.69 532.507 59.22C532.797 59.75 532.942 60.395 532.942 61.155V66H531.592V61.35C531.592 60.53 531.387 59.905 530.977 59.475C530.567 59.035 530.007 58.815 529.297 58.815C528.577 58.815 528.002 59.04 527.572 59.49C527.152 59.94 526.942 60.595 526.942 61.455V66H525.577V54.9H526.942V58.95C527.212 58.53 527.582 58.205 528.052 57.975C528.532 57.745 529.067 57.63 529.657 57.63ZM535.877 56.445C535.617 56.445 535.397 56.355 535.217 56.175C535.037 55.995 534.947 55.775 534.947 55.515C534.947 55.255 535.037 55.035 535.217 54.855C535.397 54.675 535.617 54.585 535.877 54.585C536.127 54.585 536.337 54.675 536.507 54.855C536.687 55.035 536.777 55.255 536.777 55.515C536.777 55.775 536.687 55.995 536.507 56.175C536.337 56.355 536.127 56.445 535.877 56.445ZM536.537 57.78V66H535.172V57.78H536.537ZM541.533 55.41C542.523 55.41 543.323 55.69 543.933 56.25C544.543 56.81 544.848 57.56 544.848 58.5C544.848 59.55 544.523 60.33 543.873 60.84C543.223 61.34 542.343 61.59 541.233 61.59L541.188 63.015H540.003L539.943 60.645H540.378C541.368 60.645 542.143 60.495 542.703 60.195C543.263 59.895 543.543 59.33 543.543 58.5C543.543 57.9 543.363 57.425 543.003 57.075C542.643 56.725 542.158 56.55 541.548 56.55C540.928 56.55 540.438 56.72 540.078 57.06C539.728 57.39 539.553 57.845 539.553 58.425H538.263C538.263 57.825 538.398 57.3 538.668 56.85C538.938 56.39 539.318 56.035 539.808 55.785C540.308 55.535 540.883 55.41 541.533 55.41ZM540.588 66.09C540.328 66.09 540.108 66 539.928 65.82C539.748 65.64 539.658 65.42 539.658 65.16C539.658 64.9 539.748 64.68 539.928 64.5C540.108 64.32 540.328 64.23 540.588 64.23C540.838 64.23 541.048 64.32 541.218 64.5C541.398 64.68 541.488 64.9 541.488 65.16C541.488 65.42 541.398 65.64 541.218 65.82C541.048 66 540.838 66.09 540.588 66.09ZM19.52 90.89H23.18V92H18.155V81.545H19.52V90.89ZM32.1296 87.575C32.1296 87.835 32.1146 88.11 32.0846 88.4H25.5146C25.5646 89.21 25.8396 89.845 26.3396 90.305C26.8496 90.755 27.4646 90.98 28.1846 90.98C28.7746 90.98 29.2646 90.845 29.6546 90.575C30.0546 90.295 30.3346 89.925 30.4946 89.465H31.9646C31.7446 90.255 31.3046 90.9 30.6446 91.4C29.9846 91.89 29.1646 92.135 28.1846 92.135C27.4046 92.135 26.7046 91.96 26.0846 91.61C25.4746 91.26 24.9946 90.765 24.6446 90.125C24.2946 89.475 24.1196 88.725 24.1196 87.875C24.1196 87.025 24.2896 86.28 24.6296 85.64C24.9696 85 25.4446 84.51 26.0546 84.17C26.6746 83.82 27.3846 83.645 28.1846 83.645C28.9646 83.645 29.6546 83.815 30.2546 84.155C30.8546 84.495 31.3146 84.965 31.6346 85.565C31.9646 86.155 32.1296 86.825 32.1296 87.575ZM30.7196 87.29C30.7196 86.77 30.6046 86.325 30.3746 85.955C30.1446 85.575 29.8296 85.29 29.4296 85.1C29.0396 84.9 28.6046 84.8 28.1246 84.8C27.4346 84.8 26.8446 85.02 26.3546 85.46C25.8746 85.9 25.5996 86.51 25.5296 87.29H30.7196ZM35.5964 84.905V89.75C35.5964 90.15 35.6814 90.435 35.8514 90.605C36.0214 90.765 36.3164 90.845 36.7364 90.845H37.7414V92H36.5114C35.7514 92 35.1814 91.825 34.8014 91.475C34.4214 91.125 34.2314 90.55 34.2314 89.75V84.905H33.1664V83.78H34.2314V81.71H35.5964V83.78H37.7414V84.905H35.5964ZM50.6843 83.78V92H49.3193V90.785C49.0593 91.205 48.6943 91.535 48.2243 91.775C47.7643 92.005 47.2543 92.12 46.6943 92.12C46.0543 92.12 45.4793 91.99 44.9693 91.73C44.4593 91.46 44.0543 91.06 43.7543 90.53C43.4643 90 43.3193 89.355 43.3193 88.595V83.78H44.6693V88.415C44.6693 89.225 44.8743 89.85 45.2843 90.29C45.6943 90.72 46.2543 90.935 46.9643 90.935C47.6943 90.935 48.2693 90.71 48.6893 90.26C49.1093 89.81 49.3193 89.155 49.3193 88.295V83.78H50.6843ZM55.899 92.135C55.269 92.135 54.704 92.03 54.204 91.82C53.704 91.6 53.309 91.3 53.019 90.92C52.729 90.53 52.569 90.085 52.539 89.585H53.949C53.989 89.995 54.179 90.33 54.519 90.59C54.869 90.85 55.324 90.98 55.884 90.98C56.404 90.98 56.814 90.865 57.114 90.635C57.414 90.405 57.564 90.115 57.564 89.765C57.564 89.405 57.404 89.14 57.084 88.97C56.764 88.79 56.269 88.615 55.599 88.445C54.989 88.285 54.489 88.125 54.099 87.965C53.719 87.795 53.389 87.55 53.109 87.23C52.839 86.9 52.704 86.47 52.704 85.94C52.704 85.52 52.829 85.135 53.079 84.785C53.329 84.435 53.684 84.16 54.144 83.96C54.604 83.75 55.129 83.645 55.719 83.645C56.629 83.645 57.364 83.875 57.924 84.335C58.484 84.795 58.784 85.425 58.824 86.225H57.459C57.429 85.795 57.254 85.45 56.934 85.19C56.624 84.93 56.204 84.8 55.674 84.8C55.184 84.8 54.794 84.905 54.504 85.115C54.214 85.325 54.069 85.6 54.069 85.94C54.069 86.21 54.154 86.435 54.324 86.615C54.504 86.785 54.724 86.925 54.984 87.035C55.254 87.135 55.624 87.25 56.094 87.38C56.684 87.54 57.164 87.7 57.534 87.86C57.904 88.01 58.219 88.24 58.479 88.55C58.749 88.86 58.889 89.265 58.899 89.765C58.899 90.215 58.774 90.62 58.524 90.98C58.274 91.34 57.919 91.625 57.459 91.835C57.009 92.035 56.489 92.135 55.899 92.135ZM69.4149 92L66.1899 88.37V92H64.8249V80.9H66.1899V87.425L69.3549 83.78H71.2599L67.3899 87.875L71.2749 92H69.4149ZM76.5496 83.63C77.5496 83.63 78.3596 83.935 78.9796 84.545C79.5996 85.145 79.9096 86.015 79.9096 87.155V92H78.5596V87.35C78.5596 86.53 78.3546 85.905 77.9446 85.475C77.5346 85.035 76.9746 84.815 76.2646 84.815C75.5446 84.815 74.9696 85.04 74.5396 85.49C74.1196 85.94 73.9096 86.595 73.9096 87.455V92H72.5446V83.78H73.9096V84.95C74.1796 84.53 74.5446 84.205 75.0046 83.975C75.4746 83.745 75.9896 83.63 76.5496 83.63ZM85.7244 92.135C84.9544 92.135 84.2544 91.96 83.6244 91.61C83.0044 91.26 82.5144 90.765 82.1544 90.125C81.8044 89.475 81.6294 88.725 81.6294 87.875C81.6294 87.035 81.8094 86.295 82.1694 85.655C82.5394 85.005 83.0394 84.51 83.6694 84.17C84.2994 83.82 85.0044 83.645 85.7844 83.645C86.5644 83.645 87.2694 83.82 87.8994 84.17C88.5294 84.51 89.0244 85 89.3844 85.64C89.7544 86.28 89.9394 87.025 89.9394 87.875C89.9394 88.725 89.7494 89.475 89.3694 90.125C88.9994 90.765 88.4944 91.26 87.8544 91.61C87.2144 91.96 86.5044 92.135 85.7244 92.135ZM85.7244 90.935C86.2144 90.935 86.6744 90.82 87.1044 90.59C87.5344 90.36 87.8794 90.015 88.1394 89.555C88.4094 89.095 88.5444 88.535 88.5444 87.875C88.5444 87.215 88.4144 86.655 88.1544 86.195C87.8944 85.735 87.5544 85.395 87.1344 85.175C86.7144 84.945 86.2594 84.83 85.7694 84.83C85.2694 84.83 84.8094 84.945 84.3894 85.175C83.9794 85.395 83.6494 85.735 83.3994 86.195C83.1494 86.655 83.0244 87.215 83.0244 87.875C83.0244 88.545 83.1444 89.11 83.3844 89.57C83.6344 90.03 83.9644 90.375 84.3744 90.605C84.7844 90.825 85.2344 90.935 85.7244 90.935ZM102.684 83.78L100.119 92H98.7091L96.7291 85.475L94.7491 92H93.3391L90.7591 83.78H92.1541L94.0441 90.68L96.0841 83.78H97.4791L99.4741 90.695L101.334 83.78H102.684ZM109.403 85.31C109.683 84.82 110.093 84.42 110.633 84.11C111.173 83.8 111.788 83.645 112.478 83.645C113.218 83.645 113.883 83.82 114.473 84.17C115.063 84.52 115.528 85.015 115.868 85.655C116.208 86.285 116.378 87.02 116.378 87.86C116.378 88.69 116.208 89.43 115.868 90.08C115.528 90.73 115.058 91.235 114.458 91.595C113.868 91.955 113.208 92.135 112.478 92.135C111.768 92.135 111.143 91.98 110.603 91.67C110.073 91.36 109.673 90.965 109.403 90.485V92H108.038V80.9H109.403V85.31ZM114.983 87.86C114.983 87.24 114.858 86.7 114.608 86.24C114.358 85.78 114.018 85.43 113.588 85.19C113.168 84.95 112.703 84.83 112.193 84.83C111.693 84.83 111.228 84.955 110.798 85.205C110.378 85.445 110.038 85.8 109.778 86.27C109.528 86.73 109.403 87.265 109.403 87.875C109.403 88.495 109.528 89.04 109.778 89.51C110.038 89.97 110.378 90.325 110.798 90.575C111.228 90.815 111.693 90.935 112.193 90.935C112.703 90.935 113.168 90.815 113.588 90.575C114.018 90.325 114.358 89.97 114.608 89.51C114.858 89.04 114.983 88.49 114.983 87.86ZM125.675 87.575C125.675 87.835 125.66 88.11 125.63 88.4H119.06C119.11 89.21 119.385 89.845 119.885 90.305C120.395 90.755 121.01 90.98 121.73 90.98C122.32 90.98 122.81 90.845 123.2 90.575C123.6 90.295 123.88 89.925 124.04 89.465H125.51C125.29 90.255 124.85 90.9 124.19 91.4C123.53 91.89 122.71 92.135 121.73 92.135C120.95 92.135 120.25 91.96 119.63 91.61C119.02 91.26 118.54 90.765 118.19 90.125C117.84 89.475 117.665 88.725 117.665 87.875C117.665 87.025 117.835 86.28 118.175 85.64C118.515 85 118.99 84.51 119.6 84.17C120.22 83.82 120.93 83.645 121.73 83.645C122.51 83.645 123.2 83.815 123.8 84.155C124.4 84.495 124.86 84.965 125.18 85.565C125.51 86.155 125.675 86.825 125.675 87.575ZM124.265 87.29C124.265 86.77 124.15 86.325 123.92 85.955C123.69 85.575 123.375 85.29 122.975 85.1C122.585 84.9 122.15 84.8 121.67 84.8C120.98 84.8 120.39 85.02 119.9 85.46C119.42 85.9 119.145 86.51 119.075 87.29H124.265ZM128.841 80.9V92H127.476V80.9H128.841ZM134.753 92.135C133.983 92.135 133.283 91.96 132.653 91.61C132.033 91.26 131.543 90.765 131.183 90.125C130.833 89.475 130.658 88.725 130.658 87.875C130.658 87.035 130.838 86.295 131.198 85.655C131.568 85.005 132.068 84.51 132.698 84.17C133.328 83.82 134.033 83.645 134.813 83.645C135.593 83.645 136.298 83.82 136.928 84.17C137.558 84.51 138.053 85 138.413 85.64C138.783 86.28 138.968 87.025 138.968 87.875C138.968 88.725 138.778 89.475 138.398 90.125C138.028 90.765 137.523 91.26 136.883 91.61C136.243 91.96 135.533 92.135 134.753 92.135ZM134.753 90.935C135.243 90.935 135.703 90.82 136.133 90.59C136.563 90.36 136.908 90.015 137.168 89.555C137.438 89.095 137.573 88.535 137.573 87.875C137.573 87.215 137.443 86.655 137.183 86.195C136.923 85.735 136.583 85.395 136.163 85.175C135.743 84.945 135.288 84.83 134.798 84.83C134.298 84.83 133.838 84.945 133.418 85.175C133.008 85.395 132.678 85.735 132.428 86.195C132.178 86.655 132.053 87.215 132.053 87.875C132.053 88.545 132.173 89.11 132.413 89.57C132.663 90.03 132.993 90.375 133.403 90.605C133.813 90.825 134.263 90.935 134.753 90.935ZM151.712 83.78L149.147 92H147.737L145.757 85.475L143.777 92H142.367L139.787 83.78H141.182L143.072 90.68L145.112 83.78H146.507L148.502 90.695L150.362 83.78H151.712ZM154.837 81.545L154.672 89.045H153.532L153.367 81.545H154.837ZM154.162 92.09C153.902 92.09 153.682 92 153.502 91.82C153.322 91.64 153.232 91.42 153.232 91.16C153.232 90.9 153.322 90.68 153.502 90.5C153.682 90.32 153.902 90.23 154.162 90.23C154.412 90.23 154.622 90.32 154.792 90.5C154.972 90.68 155.062 90.9 155.062 91.16C155.062 91.42 154.972 91.64 154.792 91.82C154.622 92 154.412 92.09 154.162 92.09ZM162.899 81.545V92H161.534V81.545H162.899ZM165.435 81.545H166.95L165.51 84.95H164.55L165.435 81.545ZM167.997 87.86C167.997 87.02 168.167 86.285 168.507 85.655C168.847 85.015 169.312 84.52 169.902 84.17C170.502 83.82 171.172 83.645 171.912 83.645C172.552 83.645 173.147 83.795 173.697 84.095C174.247 84.385 174.667 84.77 174.957 85.25V80.9H176.337V92H174.957V90.455C174.687 90.945 174.287 91.35 173.757 91.67C173.227 91.98 172.607 92.135 171.897 92.135C171.167 92.135 170.502 91.955 169.902 91.595C169.312 91.235 168.847 90.73 168.507 90.08C168.167 89.43 167.997 88.69 167.997 87.86ZM174.957 87.875C174.957 87.255 174.832 86.715 174.582 86.255C174.332 85.795 173.992 85.445 173.562 85.205C173.142 84.955 172.677 84.83 172.167 84.83C171.657 84.83 171.192 84.95 170.772 85.19C170.352 85.43 170.017 85.78 169.767 86.24C169.517 86.7 169.392 87.24 169.392 87.86C169.392 88.49 169.517 89.04 169.767 89.51C170.017 89.97 170.352 90.325 170.772 90.575C171.192 90.815 171.657 90.935 172.167 90.935C172.677 90.935 173.142 90.815 173.562 90.575C173.992 90.325 174.332 89.97 174.582 89.51C174.832 89.04 174.957 88.495 174.957 87.875ZM184.007 80.9V92H182.642V80.9H184.007ZM189.919 92.135C189.149 92.135 188.449 91.96 187.819 91.61C187.199 91.26 186.709 90.765 186.349 90.125C185.999 89.475 185.824 88.725 185.824 87.875C185.824 87.035 186.004 86.295 186.364 85.655C186.734 85.005 187.234 84.51 187.864 84.17C188.494 83.82 189.199 83.645 189.979 83.645C190.759 83.645 191.464 83.82 192.094 84.17C192.724 84.51 193.219 85 193.579 85.64C193.949 86.28 194.134 87.025 194.134 87.875C194.134 88.725 193.944 89.475 193.564 90.125C193.194 90.765 192.689 91.26 192.049 91.61C191.409 91.96 190.699 92.135 189.919 92.135ZM189.919 90.935C190.409 90.935 190.869 90.82 191.299 90.59C191.729 90.36 192.074 90.015 192.334 89.555C192.604 89.095 192.739 88.535 192.739 87.875C192.739 87.215 192.609 86.655 192.349 86.195C192.089 85.735 191.749 85.395 191.329 85.175C190.909 84.945 190.454 84.83 189.964 84.83C189.464 84.83 189.004 84.945 188.584 85.175C188.174 85.395 187.844 85.735 187.594 86.195C187.344 86.655 187.219 87.215 187.219 87.875C187.219 88.545 187.339 89.11 187.579 89.57C187.829 90.03 188.159 90.375 188.569 90.605C188.979 90.825 189.429 90.935 189.919 90.935ZM198.988 90.74L201.538 83.78H202.993L199.768 92H198.178L194.953 83.78H196.423L198.988 90.74ZM211.837 87.575C211.837 87.835 211.822 88.11 211.792 88.4H205.222C205.272 89.21 205.547 89.845 206.047 90.305C206.557 90.755 207.172 90.98 207.892 90.98C208.482 90.98 208.972 90.845 209.362 90.575C209.762 90.295 210.042 89.925 210.202 89.465H211.672C211.452 90.255 211.012 90.9 210.352 91.4C209.692 91.89 208.872 92.135 207.892 92.135C207.112 92.135 206.412 91.96 205.792 91.61C205.182 91.26 204.702 90.765 204.352 90.125C204.002 89.475 203.827 88.725 203.827 87.875C203.827 87.025 203.997 86.28 204.337 85.64C204.677 85 205.152 84.51 205.762 84.17C206.382 83.82 207.092 83.645 207.892 83.645C208.672 83.645 209.362 83.815 209.962 84.155C210.562 84.495 211.022 84.965 211.342 85.565C211.672 86.155 211.837 86.825 211.837 87.575ZM210.427 87.29C210.427 86.77 210.312 86.325 210.082 85.955C209.852 85.575 209.537 85.29 209.137 85.1C208.747 84.9 208.312 84.8 207.832 84.8C207.142 84.8 206.552 85.02 206.062 85.46C205.582 85.9 205.307 86.51 205.237 87.29H210.427ZM219.302 84.905V89.75C219.302 90.15 219.387 90.435 219.557 90.605C219.727 90.765 220.022 90.845 220.442 90.845H221.447V92H220.217C219.457 92 218.887 91.825 218.507 91.475C218.127 91.125 217.937 90.55 217.937 89.75V84.905H216.872V83.78H217.937V81.71H219.302V83.78H221.447V84.905H219.302ZM226.686 92.135C225.916 92.135 225.216 91.96 224.586 91.61C223.966 91.26 223.476 90.765 223.116 90.125C222.766 89.475 222.591 88.725 222.591 87.875C222.591 87.035 222.771 86.295 223.131 85.655C223.501 85.005 224.001 84.51 224.631 84.17C225.261 83.82 225.966 83.645 226.746 83.645C227.526 83.645 228.231 83.82 228.861 84.17C229.491 84.51 229.986 85 230.346 85.64C230.716 86.28 230.901 87.025 230.901 87.875C230.901 88.725 230.711 89.475 230.331 90.125C229.961 90.765 229.456 91.26 228.816 91.61C228.176 91.96 227.466 92.135 226.686 92.135ZM226.686 90.935C227.176 90.935 227.636 90.82 228.066 90.59C228.496 90.36 228.841 90.015 229.101 89.555C229.371 89.095 229.506 88.535 229.506 87.875C229.506 87.215 229.376 86.655 229.116 86.195C228.856 85.735 228.516 85.395 228.096 85.175C227.676 84.945 227.221 84.83 226.731 84.83C226.231 84.83 225.771 84.945 225.351 85.175C224.941 85.395 224.611 85.735 224.361 86.195C224.111 86.655 223.986 87.215 223.986 87.875C223.986 88.545 224.106 89.11 224.346 89.57C224.596 90.03 224.926 90.375 225.336 90.605C225.746 90.825 226.196 90.935 226.686 90.935ZM240.775 83.63C241.395 83.63 241.955 83.765 242.455 84.035C242.955 84.295 243.345 84.69 243.625 85.22C243.915 85.75 244.06 86.395 244.06 87.155V92H242.71V87.35C242.71 86.53 242.505 85.905 242.095 85.475C241.685 85.035 241.125 84.815 240.415 84.815C239.695 84.815 239.12 85.04 238.69 85.49C238.27 85.94 238.06 86.595 238.06 87.455V92H236.695V80.9H238.06V84.95C238.33 84.53 238.7 84.205 239.17 83.975C239.65 83.745 240.185 83.63 240.775 83.63ZM253.79 87.575C253.79 87.835 253.775 88.11 253.745 88.4H247.175C247.225 89.21 247.5 89.845 248 90.305C248.51 90.755 249.125 90.98 249.845 90.98C250.435 90.98 250.925 90.845 251.315 90.575C251.715 90.295 251.995 89.925 252.155 89.465H253.625C253.405 90.255 252.965 90.9 252.305 91.4C251.645 91.89 250.825 92.135 249.845 92.135C249.065 92.135 248.365 91.96 247.745 91.61C247.135 91.26 246.655 90.765 246.305 90.125C245.955 89.475 245.78 88.725 245.78 87.875C245.78 87.025 245.95 86.28 246.29 85.64C246.63 85 247.105 84.51 247.715 84.17C248.335 83.82 249.045 83.645 249.845 83.645C250.625 83.645 251.315 83.815 251.915 84.155C252.515 84.495 252.975 84.965 253.295 85.565C253.625 86.155 253.79 86.825 253.79 87.575ZM252.38 87.29C252.38 86.77 252.265 86.325 252.035 85.955C251.805 85.575 251.49 85.29 251.09 85.1C250.7 84.9 250.265 84.8 249.785 84.8C249.095 84.8 248.505 85.02 248.015 85.46C247.535 85.9 247.26 86.51 247.19 87.29H252.38ZM255.082 87.86C255.082 87.02 255.252 86.285 255.592 85.655C255.932 85.015 256.397 84.52 256.987 84.17C257.587 83.82 258.252 83.645 258.982 83.645C259.702 83.645 260.327 83.8 260.857 84.11C261.387 84.42 261.782 84.81 262.042 85.28V83.78H263.422V92H262.042V90.47C261.772 90.95 261.367 91.35 260.827 91.67C260.297 91.98 259.677 92.135 258.967 92.135C258.237 92.135 257.577 91.955 256.987 91.595C256.397 91.235 255.932 90.73 255.592 90.08C255.252 89.43 255.082 88.69 255.082 87.86ZM262.042 87.875C262.042 87.255 261.917 86.715 261.667 86.255C261.417 85.795 261.077 85.445 260.647 85.205C260.227 84.955 259.762 84.83 259.252 84.83C258.742 84.83 258.277 84.95 257.857 85.19C257.437 85.43 257.102 85.78 256.852 86.24C256.602 86.7 256.477 87.24 256.477 87.86C256.477 88.49 256.602 89.04 256.852 89.51C257.102 89.97 257.437 90.325 257.857 90.575C258.277 90.815 258.742 90.935 259.252 90.935C259.762 90.935 260.227 90.815 260.647 90.575C261.077 90.325 261.417 89.97 261.667 89.51C261.917 89.04 262.042 88.495 262.042 87.875ZM267.093 85.115C267.333 84.645 267.673 84.28 268.113 84.02C268.563 83.76 269.108 83.63 269.748 83.63V85.04H269.388C267.858 85.04 267.093 85.87 267.093 87.53V92H265.728V83.78H267.093V85.115ZM278.668 84.905H276.943V92H275.578V84.905H274.513V83.78H275.578V83.195C275.578 82.275 275.813 81.605 276.283 81.185C276.763 80.755 277.528 80.54 278.578 80.54V81.68C277.978 81.68 277.553 81.8 277.303 82.04C277.063 82.27 276.943 82.655 276.943 83.195V83.78H278.668V84.905ZM281.624 85.115C281.864 84.645 282.204 84.28 282.644 84.02C283.094 83.76 283.639 83.63 284.279 83.63V85.04H283.919C282.389 85.04 281.624 85.87 281.624 87.53V92H280.259V83.78H281.624V85.115ZM289.44 92.135C288.67 92.135 287.97 91.96 287.34 91.61C286.72 91.26 286.23 90.765 285.87 90.125C285.52 89.475 285.345 88.725 285.345 87.875C285.345 87.035 285.525 86.295 285.885 85.655C286.255 85.005 286.755 84.51 287.385 84.17C288.015 83.82 288.72 83.645 289.5 83.645C290.28 83.645 290.985 83.82 291.615 84.17C292.245 84.51 292.74 85 293.1 85.64C293.47 86.28 293.655 87.025 293.655 87.875C293.655 88.725 293.465 89.475 293.085 90.125C292.715 90.765 292.21 91.26 291.57 91.61C290.93 91.96 290.22 92.135 289.44 92.135ZM289.44 90.935C289.93 90.935 290.39 90.82 290.82 90.59C291.25 90.36 291.595 90.015 291.855 89.555C292.125 89.095 292.26 88.535 292.26 87.875C292.26 87.215 292.13 86.655 291.87 86.195C291.61 85.735 291.27 85.395 290.85 85.175C290.43 84.945 289.975 84.83 289.485 84.83C288.985 84.83 288.525 84.945 288.105 85.175C287.695 85.395 287.365 85.735 287.115 86.195C286.865 86.655 286.74 87.215 286.74 87.875C286.74 88.545 286.86 89.11 287.1 89.57C287.35 90.03 287.68 90.375 288.09 90.605C288.5 90.825 288.95 90.935 289.44 90.935ZM305.335 83.63C305.975 83.63 306.545 83.765 307.045 84.035C307.545 84.295 307.94 84.69 308.23 85.22C308.52 85.75 308.665 86.395 308.665 87.155V92H307.315V87.35C307.315 86.53 307.11 85.905 306.7 85.475C306.3 85.035 305.755 84.815 305.065 84.815C304.355 84.815 303.79 85.045 303.37 85.505C302.95 85.955 302.74 86.61 302.74 87.47V92H301.39V87.35C301.39 86.53 301.185 85.905 300.775 85.475C300.375 85.035 299.83 84.815 299.14 84.815C298.43 84.815 297.865 85.045 297.445 85.505C297.025 85.955 296.815 86.61 296.815 87.47V92H295.45V83.78H296.815V84.965C297.085 84.535 297.445 84.205 297.895 83.975C298.355 83.745 298.86 83.63 299.41 83.63C300.1 83.63 300.71 83.785 301.24 84.095C301.77 84.405 302.165 84.86 302.425 85.46C302.655 84.88 303.035 84.43 303.565 84.11C304.095 83.79 304.685 83.63 305.335 83.63ZM321.983 83.78L317.033 95.87H315.623L317.243 91.91L313.928 83.78H315.443L318.023 90.44L320.573 83.78H321.983ZM326.94 92.135C326.17 92.135 325.47 91.96 324.84 91.61C324.22 91.26 323.73 90.765 323.37 90.125C323.02 89.475 322.845 88.725 322.845 87.875C322.845 87.035 323.025 86.295 323.385 85.655C323.755 85.005 324.255 84.51 324.885 84.17C325.515 83.82 326.22 83.645 327 83.645C327.78 83.645 328.485 83.82 329.115 84.17C329.745 84.51 330.24 85 330.6 85.64C330.97 86.28 331.155 87.025 331.155 87.875C331.155 88.725 330.965 89.475 330.585 90.125C330.215 90.765 329.71 91.26 329.07 91.61C328.43 91.96 327.72 92.135 326.94 92.135ZM326.94 90.935C327.43 90.935 327.89 90.82 328.32 90.59C328.75 90.36 329.095 90.015 329.355 89.555C329.625 89.095 329.76 88.535 329.76 87.875C329.76 87.215 329.63 86.655 329.37 86.195C329.11 85.735 328.77 85.395 328.35 85.175C327.93 84.945 327.475 84.83 326.985 84.83C326.485 84.83 326.025 84.945 325.605 85.175C325.195 85.395 324.865 85.735 324.615 86.195C324.365 86.655 324.24 87.215 324.24 87.875C324.24 88.545 324.36 89.11 324.6 89.57C324.85 90.03 325.18 90.375 325.59 90.605C326 90.825 326.45 90.935 326.94 90.935ZM340.24 83.78V92H338.875V90.785C338.615 91.205 338.25 91.535 337.78 91.775C337.32 92.005 336.81 92.12 336.25 92.12C335.61 92.12 335.035 91.99 334.525 91.73C334.015 91.46 333.61 91.06 333.31 90.53C333.02 90 332.875 89.355 332.875 88.595V83.78H334.225V88.415C334.225 89.225 334.43 89.85 334.84 90.29C335.25 90.72 335.81 90.935 336.52 90.935C337.25 90.935 337.825 90.71 338.245 90.26C338.665 89.81 338.875 89.155 338.875 88.295V83.78H340.24ZM342.98 92.09C342.72 92.09 342.5 92 342.32 91.82C342.14 91.64 342.05 91.42 342.05 91.16C342.05 90.9 342.14 90.68 342.32 90.5C342.5 90.32 342.72 90.23 342.98 90.23C343.23 90.23 343.44 90.32 343.61 90.5C343.79 90.68 343.88 90.9 343.88 91.16C343.88 91.42 343.79 91.64 343.61 91.82C343.44 92 343.23 92.09 342.98 92.09Z" fill="#0F0F0F"/>
</svg>
