<svg width="41" height="40" viewBox="0 0 41 40" fill="none" xmlns="http://www.w3.org/2000/svg">
<path d="M40.9925 14C40.9248 12.8593 39.5342 11.968 36.7531 11.288C36.8467 11.088 36.8993 10.88 36.9 10.664V6H36.8884C36.6438 2.11467 20.3244 2 18.45 2C16.5756 2 0.25625 2.11467 0.0116167 6H0V6.08667V10.666C0.00341667 11.9327 1.67895 12.924 4.17175 13.662C4.13758 13.7727 4.11708 13.8853 4.11025 14H4.1V14.0867V18.658C1.4145 19.3327 0.0731167 20.2113 0.00683333 21.3333H0V21.42V25.9993C0.00205 26.8813 0.817267 27.6293 2.15113 28.2527C2.10057 28.388 2.06913 28.526 2.06025 28.6673H2.05V28.754V33.3333C2.05547 35.5507 7.17295 36.9273 12.859 37.57C12.9007 37.578 12.9389 37.5947 12.9833 37.5947C12.9963 37.5947 13.0073 37.588 13.0202 37.5873C14.1163 37.708 15.2301 37.802 16.3323 37.8693C16.3556 37.872 16.3761 37.8827 16.4 37.8827C16.413 37.8827 16.4232 37.876 16.4355 37.8753C17.835 37.958 19.2119 38 20.5 38C21.7881 38 23.165 37.958 24.5645 37.8747C24.5768 37.8753 24.5877 37.882 24.6 37.882C24.6239 37.882 24.6444 37.8707 24.6677 37.8687C25.7699 37.8013 26.8837 37.708 27.9798 37.5867C27.9928 37.5867 28.0037 37.5933 28.0167 37.5933C28.0611 37.5933 28.0993 37.5767 28.141 37.5687C33.827 36.926 38.9439 35.5487 38.95 33.3307V28.6667H38.9391C38.8912 27.8493 38.1772 27.1673 36.7668 26.5973C36.8529 26.4047 36.9 26.2047 36.9 25.9973V21.64C39.3532 20.904 40.9966 19.9193 41 18.664V14H40.9925ZM35.4595 26.214L35.2265 26.4133C34.8678 26.722 34.2699 27.0333 33.4833 27.3333V24.1547C34.2958 23.8787 34.9874 23.5727 35.5333 23.2373V25.996C35.5333 26.0647 35.5074 26.138 35.4595 26.214ZM20.1761 29.312C20.0763 29.3147 19.9759 29.316 19.8754 29.318C19.6315 29.3227 19.3814 29.324 19.134 29.326V25.996C19.3219 25.994 19.5098 25.9913 19.6978 25.988C19.734 25.9873 19.7702 25.9867 19.8064 25.986C20.4945 25.9733 21.1826 25.9527 21.8673 25.922V29.2507C21.7211 29.258 21.5742 29.2647 21.4259 29.2707C21.0145 29.2887 20.5991 29.302 20.1761 29.312ZM17.192 29.3213C16.879 29.316 16.5674 29.3087 16.2579 29.2993C16.2196 29.298 16.1813 29.2967 16.1431 29.2953C15.7707 29.2833 15.401 29.268 15.034 29.2507V25.9227C15.7187 25.954 16.4068 25.9747 17.0949 25.9867C17.1312 25.9873 17.1674 25.988 17.2029 25.9887C17.3908 25.992 17.5788 25.9947 17.7667 25.9967V29.3287C17.6341 29.3273 17.5015 29.3273 17.3696 29.3253C17.3095 29.324 17.2514 29.322 17.192 29.3213ZM4.84962 27.8013C4.82707 27.7947 4.80588 27.7887 4.78333 27.7827V24.562C5.42157 24.73 6.10763 24.8833 6.83333 25.0227V28.2767C6.20603 28.1467 5.62725 28.01 5.1004 27.87C5.01703 27.8467 4.93093 27.8247 4.84962 27.8013ZM19.2529 33.322C19.4408 33.3253 19.6287 33.328 19.8167 33.33V36.6627C18.8723 36.654 17.9607 36.6273 17.0833 36.5853V33.2567C17.768 33.288 18.4562 33.3087 19.1443 33.3207C19.1805 33.3207 19.2167 33.3213 19.2529 33.322ZM21.8557 33.32C22.5438 33.3073 23.232 33.2867 23.9167 33.256V36.5847C23.0393 36.6267 22.1277 36.6533 21.1833 36.662V33.3293C21.3713 33.3273 21.5592 33.3247 21.7471 33.3213C21.7833 33.3213 21.8195 33.3207 21.8557 33.32ZM27.3333 33.0187V36.3293C26.6767 36.3967 25.9933 36.456 25.2833 36.5047V33.18C25.9762 33.136 26.6609 33.082 27.3333 33.0187ZM28.7 32.8747C29.4045 32.792 30.0885 32.698 30.75 32.5933V35.8667C30.1063 35.9773 29.4223 36.0793 28.7 36.172V32.8747ZM32.1167 32.3553C32.8424 32.216 33.5284 32.0627 34.1667 31.8947V35.1153C33.5578 35.2867 32.8724 35.4527 32.1167 35.6093V32.3553ZM8.88333 32.3553V35.6093C8.12757 35.4527 7.44218 35.2867 6.83333 35.1153V31.8947C7.47157 32.0627 8.15763 32.2167 8.88333 32.3553ZM10.25 32.594C10.9115 32.6987 11.5955 32.7927 12.3 32.8753V36.1727C11.5777 36.08 10.8937 35.978 10.25 35.8673V32.594ZM13.6667 33.0187C14.3391 33.082 15.0238 33.136 15.7167 33.1807V36.5053C15.0067 36.4567 14.3233 36.3973 13.6667 36.33V33.0187ZM11.9713 29.032C11.9016 29.0253 11.8326 29.018 11.7636 29.0113C11.7144 29.0067 11.6659 29.0007 11.6167 28.996V25.686C12.2891 25.7493 12.9738 25.8033 13.6667 25.848V29.17C13.0927 29.13 12.5255 29.0847 11.9713 29.032ZM10.25 25.5413V28.8387C9.52772 28.746 8.8437 28.644 8.2 28.5333V25.26C8.86147 25.3647 9.54548 25.4593 10.25 25.5413ZM23.6884 29.1387C23.5381 29.15 23.3864 29.1613 23.2333 29.172V25.8473C23.9262 25.8027 24.6109 25.7493 25.2833 25.6853V28.996C24.861 29.0393 24.4292 29.08 23.9857 29.1153C23.8866 29.124 23.7875 29.1313 23.6884 29.1387ZM26.65 28.8387V25.5413C27.3545 25.4587 28.0385 25.3647 28.7 25.26V28.5333C28.0563 28.644 27.3723 28.7467 26.65 28.8387ZM30.0667 25.022C30.7924 24.8827 31.4784 24.7293 32.1167 24.5613V27.782C31.5078 27.9533 30.8224 28.1193 30.0667 28.276V25.022ZM20.7221 21.9767C20.2082 21.964 19.706 21.9447 19.2126 21.9213C19.1859 21.92 19.1593 21.9187 19.1333 21.918V18.5893C19.818 18.6207 20.5062 18.6413 21.1943 18.6533C21.2305 18.654 21.2667 18.6547 21.3022 18.6553C21.4902 18.6587 21.6781 18.6613 21.866 18.6633V21.992C21.5332 21.9887 21.1977 21.9873 20.8731 21.98C20.8232 21.9787 20.772 21.978 20.7221 21.9767ZM4.78333 12.4493V9.22867C5.42157 9.39667 6.10763 9.55 6.83333 9.68933V12.9433C6.74928 12.926 6.6625 12.9087 6.5805 12.8913C6.21697 12.8133 5.86232 12.732 5.52338 12.646C5.26508 12.5813 5.01977 12.5153 4.78333 12.4493ZM17.2029 10.6553C17.3908 10.6587 17.5788 10.6613 17.7667 10.6633V13.992C16.8469 13.9833 15.9326 13.96 15.0333 13.916V10.59C15.718 10.6213 16.4062 10.642 17.0943 10.654C17.1305 10.654 17.1667 10.6547 17.2029 10.6553ZM19.8057 10.6533C20.4938 10.6407 21.182 10.62 21.8667 10.5893V13.9153C21.7505 13.9207 21.6391 13.9287 21.5223 13.934C21.5127 13.9347 21.5031 13.9347 21.4929 13.9353C21.0344 13.9553 20.567 13.97 20.0934 13.9807C20.0196 13.9827 19.9458 13.9833 19.872 13.9853C19.6287 13.99 19.38 13.9907 19.1333 13.9933V10.6633C19.3213 10.6613 19.5092 10.6587 19.6971 10.6553C19.7333 10.6547 19.7695 10.654 19.8057 10.6533ZM35.3769 10.988L35.3577 10.984L35.109 11.1727C34.7482 11.4467 34.194 11.724 33.4833 11.992V8.82067C34.2958 8.54467 34.9874 8.23867 35.5333 7.90333V10.662C35.5333 10.7633 35.4787 10.8727 35.3769 10.988ZM26.65 13.5013V10.208C27.3545 10.1253 28.0385 10.0313 28.7 9.92667V13.1947C28.0522 13.3067 27.3702 13.4093 26.65 13.5013ZM30.0667 12.938V9.68933C30.7924 9.55 31.4784 9.39667 32.1167 9.22867V12.442C31.5044 12.616 30.8149 12.782 30.0667 12.938ZM25.2833 10.352V13.6587C24.6232 13.7267 23.9399 13.786 23.2333 13.8353V10.514C23.9262 10.4693 24.6109 10.4153 25.2833 10.352ZM11.6167 13.66V10.352C12.2891 10.4153 12.9738 10.4693 13.6667 10.514V13.8327C12.971 13.784 12.285 13.7287 11.6167 13.66ZM10.25 10.208V13.502C10.1147 13.4847 9.97393 13.4707 9.84 13.4527C9.75253 13.4407 9.66917 13.428 9.58307 13.416C9.1881 13.3607 8.80202 13.3013 8.42345 13.2393C8.3476 13.2267 8.27448 13.2133 8.2 13.2007V9.92733C8.86147 10.0313 9.54548 10.126 10.25 10.208ZM17.5972 21.826C17.505 21.8193 17.412 21.8127 17.3204 21.806C16.8831 21.7727 16.456 21.736 16.0392 21.6953C15.9497 21.6867 15.8602 21.6773 15.7713 21.6687C15.7529 21.6667 15.7351 21.664 15.7167 21.6627V18.352C16.3891 18.4153 17.0738 18.4693 17.7667 18.514V21.8367C17.7113 21.8327 17.6525 21.83 17.5972 21.826ZM13.0824 21.328C12.8118 21.286 12.5576 21.2407 12.3 21.1967V17.9273C12.9615 18.032 13.6455 18.126 14.35 18.2087V21.506C13.9318 21.452 13.5225 21.396 13.1296 21.336C13.1139 21.3327 13.0981 21.33 13.0824 21.328ZM10.9333 17.6887V20.9373C10.1783 20.7793 9.49355 20.6113 8.88333 20.4367V17.228C9.52157 17.396 10.2076 17.55 10.9333 17.6887ZM7.51667 16.8207V19.988C6.44247 19.5833 5.74957 19.17 5.52407 18.802L5.47828 18.7273C5.47418 18.7067 5.46735 18.6847 5.46667 18.664V15.9033C6.01265 16.2387 6.70418 16.5447 7.51667 16.8207ZM23.9057 18.6533C24.5939 18.6407 25.282 18.62 25.9667 18.5893V21.9147C25.0688 21.958 24.1558 21.982 23.2333 21.9913V18.6633C23.4212 18.6613 23.6092 18.6587 23.7971 18.6553C23.8333 18.6547 23.8695 18.654 23.9057 18.6533ZM32.7365 21.2113C32.4365 21.262 32.1338 21.312 31.8228 21.358C31.6445 21.3847 31.462 21.41 31.2789 21.4353C31.106 21.4593 30.9263 21.48 30.7507 21.502V18.208C31.4552 18.1253 32.1392 18.0313 32.8007 17.9267V21.2C32.7788 21.204 32.7576 21.208 32.7365 21.2113ZM28.1096 21.7807C27.8547 21.8013 27.5916 21.8147 27.3333 21.8327V18.514C28.0262 18.4693 28.7109 18.416 29.3833 18.352V21.6593C28.9863 21.7 28.59 21.7407 28.182 21.774C28.1574 21.776 28.1342 21.7787 28.1096 21.7807ZM35.9187 20.5307C35.5784 20.6233 35.2183 20.71 34.8507 20.7947C34.6805 20.8333 34.507 20.872 34.3293 20.9093C34.2767 20.9207 34.2206 20.9307 34.1674 20.942V17.6893C34.8931 17.55 35.5791 17.3967 36.2174 17.2287V20.4493C36.1189 20.476 36.0199 20.5033 35.9187 20.5307ZM39.6258 14.0433C39.563 14.496 38.5113 15.098 36.6342 15.664C34.2165 16.3927 30.4336 17.06 25.6394 17.2667C25.394 17.2767 25.1494 17.2867 24.8993 17.2947C24.695 17.3013 24.49 17.3073 24.2816 17.3127C23.7158 17.3247 23.1418 17.3333 22.55 17.3333C21.9582 17.3333 21.3842 17.3247 20.8184 17.312C20.6107 17.3073 20.4057 17.3007 20.2007 17.294C19.9499 17.2867 19.7053 17.276 19.4606 17.266C14.6664 17.0593 10.8828 16.392 8.46582 15.6633C6.60373 15.102 5.55413 14.5047 5.47623 14.054C5.47965 14.0413 5.47965 14.0307 5.48785 14.0147C5.53432 14.026 5.58625 14.0353 5.6334 14.0467C5.90058 14.1087 6.1746 14.1687 6.4534 14.226C7.81118 14.5113 9.31588 14.7453 10.919 14.924C10.9244 14.924 10.9285 14.9267 10.9333 14.9267C10.9347 14.9267 10.9367 14.926 10.9367 14.926C12.0287 15.0473 13.1617 15.1427 14.3247 15.21C14.3336 15.21 14.3411 15.2147 14.35 15.2147C14.3548 15.2147 14.3582 15.212 14.363 15.212C15.2001 15.26 16.0481 15.2953 16.9063 15.314C17.4318 15.3267 17.9478 15.3333 18.45 15.3333C18.8088 15.3333 19.1764 15.3293 19.5474 15.3227C24.5125 15.248 29.1141 14.672 32.3162 13.7793C32.4638 13.7387 32.608 13.6967 32.7501 13.6547C32.8369 13.6287 32.9257 13.6033 33.0098 13.5773C33.2571 13.5 33.4943 13.4207 33.7232 13.338C33.7628 13.3233 33.8004 13.3087 33.84 13.294C34.0334 13.2227 34.2193 13.1487 34.3969 13.0733C34.4482 13.0513 34.5008 13.03 34.5507 13.008C34.74 12.9247 34.9231 12.8393 35.0926 12.7507C35.1691 12.7113 35.2354 12.6707 35.3071 12.6307C35.3891 12.5847 35.4711 12.538 35.547 12.4907C35.59 12.464 35.6413 12.4387 35.6823 12.412C38.7416 13.0593 39.5479 13.7673 39.6258 14.0433ZM18.45 3.33333C29.7175 3.33333 35.4165 5.064 35.5231 6.05733C35.4404 6.508 34.3915 7.10333 32.5342 7.66333C30.1166 8.392 26.3336 9.05933 21.5394 9.266C21.294 9.276 21.0494 9.286 20.7993 9.294C20.595 9.30067 20.39 9.30667 20.1816 9.312C19.6158 9.32467 19.0418 9.33333 18.45 9.33333C17.8582 9.33333 17.2842 9.32467 16.7184 9.312C16.5107 9.30733 16.3057 9.30067 16.1007 9.294C15.8499 9.28667 15.6053 9.276 15.3607 9.266C10.5664 9.05933 6.78277 8.392 4.36582 7.66333C2.50783 7.10333 1.4596 6.508 1.37692 6.05733C1.48352 5.064 7.18252 3.33333 18.45 3.33333ZM1.36667 10.664V7.90333C1.91265 8.23867 2.60418 8.54467 3.41667 8.82067V12.0127C2.08758 11.5267 1.36803 11.0393 1.36667 10.664ZM4.67673 19.89C4.68698 19.9007 4.7027 19.91 4.71295 19.9207C5.64843 20.842 7.58568 21.566 9.99717 22.106C10.0525 22.1187 10.1113 22.1307 10.1673 22.1433C10.3443 22.182 10.524 22.22 10.7058 22.2567C12.9205 22.7167 15.5643 23.0493 18.4445 23.214C18.4466 23.214 18.448 23.2147 18.4493 23.2147C18.4507 23.2147 18.4521 23.214 18.4521 23.214C19.3773 23.2667 20.3237 23.3033 21.2899 23.3193C21.7177 23.328 22.1386 23.3333 22.55 23.3333C23.0215 23.3333 23.5053 23.328 23.9973 23.3167C24.8911 23.2987 25.7719 23.2627 26.6404 23.2133C26.6439 23.2133 26.6466 23.2153 26.65 23.2153C26.6562 23.2153 26.6609 23.212 26.6671 23.212C29.5549 23.046 32.2643 22.71 34.5555 22.2267C34.0594 22.48 33.3801 22.742 32.5342 22.9973C29.9819 23.7667 25.9058 24.4673 20.7255 24.63C20.5718 24.6347 20.42 24.64 20.2642 24.644C20.0968 24.648 19.9267 24.6507 19.7565 24.654C19.3267 24.6607 18.8942 24.6667 18.45 24.6667C17.8582 24.6667 17.2842 24.658 16.7184 24.6453C16.5107 24.6407 16.3057 24.634 16.1007 24.6273C15.8499 24.62 15.6053 24.6093 15.3607 24.5993C10.5664 24.3927 6.78277 23.7253 4.36582 22.9967C2.48665 22.43 1.435 21.8273 1.37418 21.3747C1.45003 21.124 2.14088 20.4967 4.67673 19.89ZM1.36667 25.9973V23.2367C1.91265 23.572 2.60418 23.878 3.41667 24.154V27.3333L3.02648 27.1853L3.01828 27.1933C1.94545 26.7593 1.36803 26.3333 1.36667 25.9973ZM3.41667 33.3307V30.57C3.96265 30.9053 4.65418 31.2113 5.46667 31.4873V34.6793C4.13758 34.1933 3.41803 33.706 3.41667 33.3307ZM35.5333 34.6793V31.488C36.3458 31.212 37.0373 30.906 37.5833 30.5707V33.3293C37.5826 33.7047 36.8624 34.1927 35.5333 34.6793ZM37.5745 28.718C37.5 29.1693 36.4504 29.768 34.5842 30.3307C32.1665 31.0593 28.3836 31.7267 23.5893 31.9333C23.344 31.9433 23.0994 31.9533 22.8493 31.9613C22.645 31.968 22.44 31.974 22.2316 31.9793C21.6658 31.9913 21.0918 32 20.5 32C19.9082 32 19.3336 31.9913 18.7671 31.9787C18.5614 31.974 18.3584 31.9673 18.1555 31.9607C17.9033 31.9527 17.6573 31.9427 17.4107 31.9327C12.6164 31.726 8.83345 31.0587 6.41582 30.33C4.6084 29.7853 3.56427 29.2067 3.43307 28.76C3.6367 28.8293 3.84785 28.8967 4.06447 28.9627C4.08633 28.9693 4.1082 28.976 4.13007 28.982C4.31457 29.0373 4.50317 29.0907 4.69655 29.1427C4.76967 29.1627 4.84347 29.1827 4.91795 29.202C5.02728 29.2307 5.13935 29.258 5.25142 29.286C7.74012 29.908 10.9169 30.3487 14.3466 30.5467C14.348 30.5467 14.3486 30.5473 14.35 30.5473L14.352 30.5467C15.4112 30.608 16.4929 30.646 17.5863 30.6587C17.8774 30.664 18.1664 30.6667 18.45 30.6667C18.8265 30.6667 19.2119 30.662 19.6021 30.6553C20.5991 30.6393 21.5831 30.6033 22.5452 30.5473C22.5473 30.5473 22.5486 30.5487 22.5507 30.5487C22.5541 30.5487 22.5562 30.5467 22.5596 30.5467C23.7315 30.478 24.8658 30.38 25.9557 30.258C25.9598 30.258 25.9632 30.26 25.9674 30.26C25.9824 30.26 25.9947 30.2527 26.0097 30.2513C27.2233 30.1147 28.3741 29.9467 29.4421 29.7513C29.6621 29.712 29.8788 29.6713 30.0933 29.6293C30.1412 29.62 30.189 29.6107 30.2368 29.6007C32.2547 29.1967 34.0013 28.6733 35.1999 28.0247C35.2655 27.99 35.327 27.954 35.3892 27.9187C35.465 27.8747 35.5374 27.83 35.6078 27.7847C35.6734 27.7433 35.7493 27.7033 35.8094 27.6613C37.1583 28.1307 37.53 28.5507 37.5745 28.718ZM37.5833 20.0127V16.8213C38.3958 16.5453 39.0873 16.2393 39.6333 15.904V18.6627C39.6326 19.038 38.9124 19.526 37.5833 20.0127Z" fill="#0F0F0F"/>
</svg>
