<svg width="41" height="40" viewBox="0 0 41 40" fill="none" xmlns="http://www.w3.org/2000/svg">
<g clip-path="url(#clip0_5_506)">
<path d="M8.23201 27.6844C6.65381 27.6844 5.37411 29.0038 5.37411 30.6323C5.37411 32.2601 6.65381 33.5801 8.23201 33.5801C9.80949 33.5801 11.0884 32.2601 11.0884 30.6323C11.0884 29.0037 9.80949 27.6844 8.23201 27.6844Z" fill="#0F0F0F"/>
<path d="M40.1578 25.433H15.8145C15.3456 25.433 14.9657 25.041 14.9657 24.558V11.4861C14.9657 11.0023 14.5857 10.6105 14.1168 10.6105H6.38423C6.13235 10.6105 5.89399 10.7256 5.73277 10.9252L0.196704 17.7791C0.069359 17.9358 0 18.1345 0 18.3388V24.3509V27.4948C0 27.9778 0.380594 28.3697 0.848166 28.3697H5.11519C5.80629 27.3595 6.94383 26.6964 8.23202 26.6964C9.51876 26.6964 10.6569 27.3595 11.348 28.3697H28.7613C29.4524 27.3595 30.5896 26.6964 31.8785 26.6964C33.1659 26.6964 34.3035 27.3595 34.9939 28.3697H40.1578C40.6275 28.3697 41.0067 27.9778 41.0067 27.4948V26.3092C41.0067 25.8256 40.6275 25.433 40.1578 25.433ZM3.09905 19.035V18.4292C3.09905 18.2222 3.16913 18.0214 3.29495 17.8606L6.82986 13.3698C6.99613 13.1588 7.24513 13.0366 7.50823 13.0366H10.971C11.4549 13.0366 11.8468 13.4402 11.8468 13.9384V19.035C11.8468 19.5332 11.4549 19.9369 10.971 19.9369H3.97413C3.4903 19.9369 3.09905 19.5332 3.09905 19.035Z" fill="#0F0F0F"/>
<path d="M31.8785 27.6844C30.2995 27.6844 29.0202 29.0038 29.0202 30.6323C29.0202 32.2601 30.2995 33.5801 31.8785 33.5801C33.4559 33.5801 34.7349 32.2601 34.7349 30.6323C34.7349 29.0037 33.4559 27.6844 31.8785 27.6844Z" fill="#0F0F0F"/>
<path d="M26.5896 13.5458H25.6183C25.5858 13.5458 25.5703 13.563 25.5703 13.5961V14.9064C25.5703 14.9403 25.5858 14.9575 25.6183 14.9575H26.5896C27.0423 14.9575 27.3345 14.6808 27.3345 14.2551C27.3345 13.8203 27.0423 13.5458 26.5896 13.5458Z" fill="#0F0F0F"/>
<path d="M39.9895 6.4198H17.1813C16.6189 6.4198 16.164 6.88964 16.164 7.47074V23.1489C16.164 23.7285 16.6189 24.1985 17.1813 24.1985H39.9895C40.5512 24.1985 41.0067 23.7285 41.0067 23.1489V7.47074C41.0067 6.88972 40.5512 6.4198 39.9895 6.4198ZM21.108 13.5458C21.0754 13.5458 21.0599 13.563 21.0599 13.5961V14.7899C21.0599 14.823 21.0754 14.8403 21.108 14.8403H22.6622C23.0096 14.8403 23.2125 15.0576 23.2125 15.366C23.2125 15.6752 23.0096 15.8925 22.6622 15.8925H21.108C21.0754 15.8925 21.0599 15.9091 21.0599 15.9416V17.5618C21.0599 17.9558 20.8088 18.2132 20.4685 18.2132C20.1212 18.2132 19.8701 17.9558 19.8701 17.5618V13.0289C19.8701 12.7018 20.0639 12.4852 20.3879 12.4852H23.0583C23.3907 12.4852 23.6094 12.7115 23.6094 13.02C23.6094 13.3201 23.3907 13.5458 23.0583 13.5458H21.108ZM27.6175 15.7835L28.4189 17.2864C28.4748 17.3954 28.4996 17.5127 28.4996 17.6293C28.4996 17.9468 28.2894 18.2131 27.9329 18.2131C27.6903 18.2131 27.488 18.0965 27.35 17.8295L26.4276 16.0009H25.6184C25.5859 16.0009 25.5703 16.0175 25.5703 16.0499V17.5618C25.5703 17.9558 25.3263 18.2132 24.9797 18.2132C24.6309 18.2132 24.3804 17.9558 24.3804 17.5618V13.0289C24.3804 12.7018 24.5742 12.4852 24.8983 12.4852H26.6463C27.7795 12.4852 28.5237 13.211 28.5237 14.2468C28.5237 14.9403 28.1841 15.4917 27.6175 15.7835ZM32.6212 13.5458H30.6702C30.6377 13.5458 30.6221 13.563 30.6221 13.5961V14.7236C30.6221 14.7575 30.6377 14.7734 30.6702 14.7734H32.2322C32.5646 14.7734 32.7754 14.9907 32.7754 15.2992C32.7754 15.6097 32.5646 15.8264 32.2322 15.8264H30.6702C30.6377 15.8264 30.6221 15.8423 30.6221 15.8753V17.0525C30.6221 17.0864 30.6377 17.1036 30.6702 17.1036H32.6212C32.9523 17.1036 33.1716 17.3278 33.1716 17.6295C33.1716 17.9386 32.9523 18.1643 32.6212 18.1643H29.9501C29.6272 18.1643 29.4327 17.9469 29.4327 17.6211V13.029C29.4327 12.7019 29.6272 12.4853 29.9501 12.4853H32.6212C32.9523 12.4853 33.1716 12.7116 33.1716 13.02C33.1716 13.3201 32.9523 13.5458 32.6212 13.5458ZM37.1953 13.5458H35.2456C35.2131 13.5458 35.1961 13.563 35.1961 13.5961V14.7236C35.1961 14.7575 35.2131 14.7734 35.2456 14.7734H36.8075C37.1385 14.7734 37.3493 14.9907 37.3493 15.2992C37.3493 15.6097 37.1385 15.8264 36.8075 15.8264H35.2456C35.2131 15.8264 35.1961 15.8423 35.1961 15.8753V17.0525C35.1961 17.0864 35.2131 17.1036 35.2456 17.1036H37.1953C37.5276 17.1036 37.7456 17.3278 37.7456 17.6295C37.7456 17.9386 37.5276 18.1643 37.1953 18.1643H34.5255C34.2001 18.1643 34.0063 17.9469 34.0063 17.6211V13.029C34.0063 12.7019 34.2001 12.4853 34.5255 12.4853H37.1953C37.5276 12.4853 37.7456 12.7116 37.7456 13.02C37.7456 13.3201 37.5277 13.5458 37.1953 13.5458Z" fill="#0F0F0F"/>
</g>
<defs>
<clipPath id="clip0_5_506">
<rect width="41.0067" height="40" fill="white"/>
</clipPath>
</defs>
</svg>
