<svg width="41" height="40" viewBox="0 0 41 40" fill="none" xmlns="http://www.w3.org/2000/svg">
<path d="M34.2292 40.0001H6.77628C4.79284 40.0001 3.17893 38.2355 3.17893 36.067V20.2278C1.39112 20.002 0 18.3325 0 16.3244V12.2666C0 10.098 1.61392 8.3335 3.59735 8.3335H37.4026C39.3861 8.3335 41 10.098 41 12.2666V16.3244C41 18.3385 39.6089 20.002 37.8211 20.2278V36.067C37.8265 38.2355 36.2126 40.0001 34.2292 40.0001ZM3.59735 11.4823C3.20066 11.4823 2.88005 11.8329 2.88005 12.2666V16.3244C2.88005 16.7581 3.20066 17.1086 3.59735 17.1086H6.05354V36.067C6.05354 36.5007 6.37416 36.8512 6.77084 36.8512H34.2292C34.6258 36.8512 34.9465 36.5007 34.9465 36.067V17.1086H37.4026C37.7993 17.1086 38.1199 16.7581 38.1199 16.3244V12.2666C38.1199 11.8329 37.7993 11.4823 37.4026 11.4823H3.59735Z" fill="#0F0F0F"/>
<path d="M5.67857 17.1085H35.3268V20.181H5.67857V17.1085Z" fill="#0F0F0F"/>
<path d="M7.72239 11.3461L6.13706 8.36779C4.84451 5.9319 5.59746 2.79489 7.82537 1.38166L7.8395 1.37275L8.90772 0.698423C11.1055 -0.688846 13.8788 0.071449 15.2155 2.42452L20.1143 11.0359L7.72239 11.3461ZM9.27876 4.08651L9.25996 4.09839C8.41556 4.63821 8.12391 5.84451 8.61841 6.7809L9.34859 8.15171L15.0084 8.00918L12.7742 4.07534C12.2568 3.16705 11.1894 2.88039 10.347 3.41212L9.27876 4.08651ZM15.2046 19.7756H18.3835V37.3259H15.2046V19.7756ZM22.622 19.7756H25.801V37.3259H22.622V19.7756Z" fill="#0F0F0F"/>
<path d="M33.1676 11.3409L20.7758 11.0307L25.6746 2.4194C27.014 0.0611024 29.7846 -0.694023 31.9823 0.693245L33.1023 1.40025C34.1625 2.09002 34.9203 3.18581 35.2359 4.48949C35.5554 5.80944 35.3873 7.18519 34.7577 8.36558L33.1676 11.3409V11.3409ZM25.8809 8.01737L31.536 8.15693L32.2689 6.78095C32.508 6.32823 32.5762 5.79495 32.4529 5.29179C32.3323 4.78346 32.0341 4.36199 31.6227 4.09541L30.545 3.41514C29.6979 2.88044 28.6324 3.17518 28.1178 4.07836L25.8809 8.01737Z" fill="#0F0F0F"/>
</svg>
