<svg width="298" height="68" viewBox="0 0 298 68" fill="none" xmlns="http://www.w3.org/2000/svg">
<g clip-path="url(#clip0_174_10)">
<path d="M66.9982 25.4812L56.4411 36.2326C55.3809 27.582 49.2473 23.4575 41.7814 23.3318C37.8413 23.2669 35.3229 24.6012 32.1342 27.3063L28.6613 15.0341C33.2107 12.3493 36.8461 11.1731 42.4963 11.2664C53.1875 11.4449 61.6201 15.8776 66.9982 25.4812Z" fill="#191919"/>
<path d="M42.8943 63.2916C42.9715 62.7887 43.0081 62.2736 43.0081 61.7505C43.0081 56.0929 38.414 51.506 32.7475 51.506C29.4736 51.506 26.5611 52.7673 24.6804 55.152C24.6804 55.152 15.8619 47.4626 18.0554 30.3724C18.4006 27.6916 16.8896 24.2241 15.7116 21.9489C13.0388 16.7902 8.32693 12.6779 2.92857 10.5609C2.22991 10.2891 1.49469 10.0296 0.978821 9.49018C-0.694712 7.74628 -0.0123008 3.5163 1.44189 1.86974C2.46144 0.717951 4.02124 0.162335 5.55667 0.0447235C20.2813 -1.08273 29.9285 19.8481 30.0951 31.6905C30.1397 34.9836 30.1804 38.5728 31.1593 41.7443C32.4469 45.9012 35.6153 50.1434 39.9738 51.2911C43.9423 52.3334 48.2399 52.086 51.6195 49.8473C53.1427 48.8375 54.6416 46.7813 55.6002 45.2199C56.1689 44.2952 56.6157 43.2975 56.9163 42.2512C57.0869 41.6591 57.2087 41.0507 57.2818 40.4384C57.3184 40.122 57.355 39.7935 57.3428 38.4146L68.2614 27.6227C69.4434 29.5734 70.2924 33.5195 69.9065 38.4146C69.9065 38.4146 70.3005 46.3392 65.5073 52.7065C63.6307 50.6544 60.9864 49.7946 57.9846 49.7946C52.3181 49.7946 47.724 54.3815 47.724 60.039C47.724 61.207 47.919 62.3304 48.2805 63.3767" fill="#191919"/>
<path d="M32.8411 68C36.5472 68 39.5515 65.0004 39.5515 61.3002C39.5515 57.6 36.5472 54.6003 32.8411 54.6003C29.1351 54.6003 26.1307 57.6 26.1307 61.3002C26.1307 65.0004 29.1351 68 32.8411 68Z" fill="#191919"/>
<path d="M57.6597 66.2845C61.3658 66.2845 64.3701 63.2849 64.3701 59.5847C64.3701 55.8845 61.3658 52.8848 57.6597 52.8848C53.9537 52.8848 50.9493 55.8845 50.9493 59.5847C50.9493 63.2849 53.9537 66.2845 57.6597 66.2845Z" fill="#191919"/>
</g>
<path d="M127.88 33.72C129.373 33.9867 130.64 34.7733 131.68 36.08C132.72 37.3867 133.24 38.8667 133.24 40.52C133.24 41.9333 132.867 43.2133 132.12 44.36C131.4 45.48 130.347 46.3733 128.96 47.04C127.573 47.68 125.96 48 124.12 48H113V20.2H123.6C125.493 20.2 127.12 20.52 128.48 21.16C129.84 21.8 130.867 22.6667 131.56 23.76C132.253 24.8267 132.6 26.0267 132.6 27.36C132.6 28.96 132.173 30.2933 131.32 31.36C130.467 32.4267 129.32 33.2133 127.88 33.72ZM117.56 31.88H123.2C124.693 31.88 125.853 31.5467 126.68 30.88C127.533 30.1867 127.96 29.2 127.96 27.92C127.96 26.6667 127.533 25.6933 126.68 25C125.853 24.28 124.693 23.92 123.2 23.92H117.56V31.88ZM123.72 44.28C125.267 44.28 126.48 43.9067 127.36 43.16C128.24 42.4133 128.68 41.3733 128.68 40.04C128.68 38.68 128.213 37.6 127.28 36.8C126.347 36 125.107 35.6 123.56 35.6H117.56V44.28H123.72ZM142.755 18.4V48H138.195V18.4H142.755ZM151.062 23.04C150.236 23.04 149.542 22.76 148.982 22.2C148.422 21.64 148.142 20.9467 148.142 20.12C148.142 19.2933 148.422 18.6 148.982 18.04C149.542 17.48 150.236 17.2 151.062 17.2C151.862 17.2 152.542 17.48 153.102 18.04C153.662 18.6 153.942 19.2933 153.942 20.12C153.942 20.9467 153.662 21.64 153.102 22.2C152.542 22.76 151.862 23.04 151.062 23.04ZM153.302 25.96V48H148.742V25.96H153.302ZM167.289 48.36C165.556 48.36 163.996 48.0533 162.609 47.44C161.249 46.8 160.169 45.9467 159.369 44.88C158.569 43.7867 158.142 42.5733 158.089 41.24H162.809C162.889 42.1733 163.329 42.96 164.129 43.6C164.956 44.2133 165.982 44.52 167.209 44.52C168.489 44.52 169.476 44.28 170.169 43.8C170.889 43.2933 171.249 42.6533 171.249 41.88C171.249 41.0533 170.849 40.44 170.049 40.04C169.276 39.64 168.036 39.2 166.329 38.72C164.676 38.2667 163.329 37.8267 162.289 37.4C161.249 36.9733 160.342 36.32 159.569 35.44C158.822 34.56 158.449 33.4 158.449 31.96C158.449 30.7867 158.796 29.72 159.489 28.76C160.182 27.7733 161.169 27 162.449 26.44C163.756 25.88 165.249 25.6 166.929 25.6C169.436 25.6 171.449 26.24 172.969 27.52C174.516 28.7733 175.342 30.4933 175.449 32.68H170.889C170.809 31.6933 170.409 30.9067 169.689 30.32C168.969 29.7333 167.996 29.44 166.769 29.44C165.569 29.44 164.649 29.6667 164.009 30.12C163.369 30.5733 163.049 31.1733 163.049 31.92C163.049 32.5067 163.262 33 163.689 33.4C164.116 33.8 164.636 34.12 165.249 34.36C165.862 34.5733 166.769 34.8533 167.969 35.2C169.569 35.6267 170.876 36.0667 171.889 36.52C172.929 36.9467 173.822 37.5867 174.569 38.44C175.316 39.2933 175.702 40.4267 175.729 41.84C175.729 43.0933 175.382 44.2133 174.689 45.2C173.996 46.1867 173.009 46.96 171.729 47.52C170.476 48.08 168.996 48.36 167.289 48.36ZM188.656 48.36C186.923 48.36 185.363 48.0533 183.976 47.44C182.616 46.8 181.536 45.9467 180.736 44.88C179.936 43.7867 179.51 42.5733 179.456 41.24H184.176C184.256 42.1733 184.696 42.96 185.496 43.6C186.323 44.2133 187.35 44.52 188.576 44.52C189.856 44.52 190.843 44.28 191.536 43.8C192.256 43.2933 192.616 42.6533 192.616 41.88C192.616 41.0533 192.216 40.44 191.416 40.04C190.643 39.64 189.403 39.2 187.696 38.72C186.043 38.2667 184.696 37.8267 183.656 37.4C182.616 36.9733 181.71 36.32 180.936 35.44C180.19 34.56 179.816 33.4 179.816 31.96C179.816 30.7867 180.163 29.72 180.856 28.76C181.55 27.7733 182.536 27 183.816 26.44C185.123 25.88 186.616 25.6 188.296 25.6C190.803 25.6 192.816 26.24 194.336 27.52C195.883 28.7733 196.71 30.4933 196.816 32.68H192.256C192.176 31.6933 191.776 30.9067 191.056 30.32C190.336 29.7333 189.363 29.44 188.136 29.44C186.936 29.44 186.016 29.6667 185.376 30.12C184.736 30.5733 184.416 31.1733 184.416 31.92C184.416 32.5067 184.63 33 185.056 33.4C185.483 33.8 186.003 34.12 186.616 34.36C187.23 34.5733 188.136 34.8533 189.336 35.2C190.936 35.6267 192.243 36.0667 193.256 36.52C194.296 36.9467 195.19 37.5867 195.936 38.44C196.683 39.2933 197.07 40.4267 197.096 41.84C197.096 43.0933 196.75 44.2133 196.056 45.2C195.363 46.1867 194.376 46.96 193.096 47.52C191.843 48.08 190.363 48.36 188.656 48.36ZM210.894 34.04C210.894 31.32 211.521 28.88 212.774 26.72C214.054 24.56 215.774 22.88 217.934 21.68C220.121 20.4533 222.507 19.84 225.094 19.84C228.054 19.84 230.681 20.5733 232.974 22.04C235.294 23.48 236.974 25.5333 238.014 28.2H232.534C231.814 26.7333 230.814 25.64 229.534 24.92C228.254 24.2 226.774 23.84 225.094 23.84C223.254 23.84 221.614 24.2533 220.174 25.08C218.734 25.9067 217.601 27.0933 216.774 28.64C215.974 30.1867 215.574 31.9867 215.574 34.04C215.574 36.0933 215.974 37.8933 216.774 39.44C217.601 40.9867 218.734 42.1867 220.174 43.04C221.614 43.8667 223.254 44.28 225.094 44.28C226.774 44.28 228.254 43.92 229.534 43.2C230.814 42.48 231.814 41.3867 232.534 39.92H238.014C236.974 42.5867 235.294 44.64 232.974 46.08C230.681 47.52 228.054 48.24 225.094 48.24C222.481 48.24 220.094 47.64 217.934 46.44C215.774 45.2133 214.054 43.52 212.774 41.36C211.521 39.2 210.894 36.76 210.894 34.04ZM241.832 36.88C241.832 34.6667 242.285 32.7067 243.192 31C244.125 29.2933 245.378 27.9733 246.952 27.04C248.552 26.08 250.312 25.6 252.232 25.6C253.965 25.6 255.472 25.9467 256.752 26.64C258.058 27.3067 259.098 28.1467 259.872 29.16V25.96H264.472V48H259.872V44.72C259.098 45.76 258.045 46.6267 256.712 47.32C255.378 48.0133 253.858 48.36 252.152 48.36C250.258 48.36 248.525 47.88 246.952 46.92C245.378 45.9333 244.125 44.5733 243.192 42.84C242.285 41.08 241.832 39.0933 241.832 36.88ZM259.872 36.96C259.872 35.44 259.552 34.12 258.912 33C258.298 31.88 257.485 31.0267 256.472 30.44C255.458 29.8533 254.365 29.56 253.192 29.56C252.018 29.56 250.925 29.8533 249.912 30.44C248.898 31 248.072 31.84 247.432 32.96C246.818 34.0533 246.512 35.36 246.512 36.88C246.512 38.4 246.818 39.7333 247.432 40.88C248.072 42.0267 248.898 42.9067 249.912 43.52C250.952 44.1067 252.045 44.4 253.192 44.4C254.365 44.4 255.458 44.1067 256.472 43.52C257.485 42.9333 258.298 42.08 258.912 40.96C259.552 39.8133 259.872 38.48 259.872 36.96ZM275.021 29.16C275.688 28.04 276.568 27.1733 277.661 26.56C278.781 25.92 280.101 25.6 281.621 25.6V30.32H280.461C278.674 30.32 277.314 30.7733 276.381 31.68C275.474 32.5867 275.021 34.16 275.021 36.4V48H270.461V25.96H275.021V29.16ZM291.133 29.68V41.88C291.133 42.7067 291.319 43.3067 291.693 43.68C292.093 44.0267 292.759 44.2 293.693 44.2H296.493V48H292.893C290.839 48 289.266 47.52 288.173 46.56C287.079 45.6 286.533 44.04 286.533 41.88V29.68H283.933V25.96H286.533V20.48H291.133V25.96H296.493V29.68H291.133Z" fill="black"/>
<defs>
<clipPath id="clip0_174_10">
<rect width="70" height="68" fill="white"/>
</clipPath>
</defs>
</svg>
