<svg width="42" height="40" viewBox="0 0 42 40" fill="none" xmlns="http://www.w3.org/2000/svg">
<path d="M20.0568 28.5032C19.8874 28.1407 19.5368 27.8762 19.1124 27.8292C18.753 27.7892 18.4011 27.7142 18.0666 27.606C17.9166 27.5568 17.7758 27.5032 17.6454 27.4457L17.862 26.8705C18.0149 26.937 18.1724 26.9978 18.3337 27.0528L18.3404 27.0552L18.3473 27.0573C18.8649 27.224 19.3743 27.3085 19.8609 27.3085C20.3496 27.3085 20.7039 27.2447 20.976 27.1078L20.9922 27.0997L21.0082 27.0907C21.4204 26.8602 21.657 26.464 21.657 26.0035C21.657 25.4925 21.374 25.0683 20.8806 24.8392C20.6324 24.7215 20.2798 24.6092 19.772 24.4862C19.2511 24.3578 18.8136 24.2217 18.4742 24.0822C18.2262 23.9728 18.011 23.7983 17.817 23.5488C17.6501 23.3262 17.5656 22.9913 17.5656 22.5532C17.5656 22.0245 17.7183 21.5882 18.0327 21.2192C18.3125 20.8958 18.7099 20.6762 19.2432 20.553C19.6389 20.4617 19.9475 20.1865 20.0862 19.8312C20.243 20.1913 20.5768 20.4592 20.9921 20.5237C21.339 20.5775 21.6575 20.6633 21.9438 20.7795L21.7445 21.3432C21.2038 21.1317 20.6717 21.0248 20.157 21.0248C18.4477 21.0248 18.3611 22.1738 18.3611 22.4042C18.3611 22.9035 18.6379 23.3222 19.1204 23.553L19.1339 23.5595L19.1476 23.5655C19.3914 23.6715 19.7372 23.7737 20.2364 23.887C20.7524 24.0007 21.1828 24.1308 21.521 24.2752L21.528 24.2782L21.535 24.281C21.7861 24.3828 22.0015 24.5528 22.1934 24.8008L22.1965 24.8047L22.1995 24.8087C22.3673 25.02 22.4525 25.3468 22.4525 25.7802C22.4525 26.2803 22.3039 26.7037 21.998 27.0745C21.7327 27.3962 21.3624 27.6188 20.8655 27.7552C20.4818 27.8605 20.1842 28.1463 20.0568 28.5032Z" fill="#0F0F0F"/>
<path d="M20.4895 30H19.6659C19.4817 30 19.3323 29.8509 19.3323 29.6667V28.9975C19.3323 28.8215 19.1953 28.6769 19.0202 28.6574C18.6031 28.6112 18.1998 28.525 17.81 28.399C17.4313 28.2747 17.1032 28.1274 16.8257 27.9565C16.6982 27.878 16.6518 27.7187 16.7045 27.5787L17.2694 26.0777C17.3456 25.8757 17.591 25.7984 17.78 25.9029C18.0352 26.0437 18.3096 26.1642 18.6028 26.2642C19.0398 26.4049 19.4593 26.4752 19.8609 26.4752C20.2062 26.4752 20.4531 26.438 20.601 26.3635C20.749 26.2807 20.8231 26.1607 20.8231 26.0035C20.8231 25.8215 20.7244 25.685 20.527 25.594C20.3368 25.503 20.0195 25.4037 19.5756 25.2962C19.0046 25.1555 18.5289 25.0065 18.1483 24.8494C17.7677 24.6839 17.4364 24.419 17.1545 24.055C16.8725 23.6827 16.7316 23.182 16.7316 22.5532C16.7316 21.825 16.9536 21.2004 17.3976 20.679C17.7978 20.2167 18.3503 19.904 19.0554 19.7412C19.2141 19.7045 19.3323 19.5669 19.3323 19.4042V18.6667C19.3323 18.4825 19.4817 18.3334 19.6659 18.3334H20.4895C20.6737 18.3334 20.8231 18.4825 20.8231 18.6667V19.362C20.8231 19.5324 20.9517 19.6742 21.12 19.7004C21.7377 19.7962 22.2804 19.9777 22.7481 20.2449C22.8808 20.3207 22.9335 20.482 22.8825 20.626L22.3538 22.1209C22.2838 22.319 22.0504 22.4029 21.8625 22.3082C21.2669 22.0082 20.6985 21.8582 20.157 21.8582C19.5155 21.8582 19.1948 22.0402 19.1948 22.4042C19.1948 22.578 19.2901 22.7104 19.4803 22.8015C19.6707 22.8842 19.9842 22.9752 20.4213 23.0745C20.985 23.1987 21.4609 23.3434 21.8485 23.5089C22.2361 23.666 22.5709 23.9267 22.8529 24.2909C23.1418 24.6549 23.2864 25.1514 23.2864 25.7802C23.2864 26.4752 23.0714 27.0834 22.6413 27.6047C22.2669 28.059 21.7485 28.377 21.0863 28.5589C20.9341 28.6007 20.8231 28.7354 20.8231 28.893V29.6667C20.8231 29.8509 20.6737 30 20.4895 30Z" fill="#0F0F0F"/>
<path fill-rule="evenodd" clip-rule="evenodd" d="M16.408 8.33337H23.6294C25.479 8.33337 24.4633 11.1067 23.7144 12.7984L22.8622 14.7384L22.7471 15C23.5543 14.9609 24.3526 15.1843 25.0219 15.6367C27.5259 17.9264 29.5582 20.683 31.0043 23.7517C31.5678 24.8864 31.7913 26.1597 31.648 27.4184C31.4759 30.6265 28.9004 33.183 25.689 33.3334H14.3483C11.1361 33.1875 8.55672 30.6337 8.38102 27.425C8.23766 26.1664 8.46121 24.893 9.02478 23.7584C10.4725 20.6867 12.5076 17.9275 15.0154 15.6367C15.6848 15.1843 16.483 14.9609 17.2902 15L17.1567 14.6984L16.3229 12.7984C15.5774 11.1067 14.5567 8.33337 16.408 8.33337Z" stroke="#0F0F0F" stroke-width="1.5" stroke-linecap="round" stroke-linejoin="round"/>
<path d="M22.7471 16.25C23.4556 16.25 24.03 15.6904 24.03 15C24.03 14.3097 23.4556 13.75 22.7471 13.75V16.25ZM17.2901 13.75C16.5817 13.75 16.0073 14.3097 16.0073 15C16.0073 15.6904 16.5817 16.25 17.2901 16.25V13.75ZM27.3301 14.4165C27.944 14.0719 28.1551 13.3076 27.8013 12.7094C27.4476 12.1112 26.6633 11.9056 26.0494 12.2502L27.3301 14.4165ZM22.8622 14.7384L23.1097 15.9649L23.1135 15.9642L22.8622 14.7384ZM17.1567 14.6984L17.4224 13.4754L17.4107 13.4731L17.1567 14.6984ZM13.9681 12.2393C13.348 11.9054 12.5675 12.1245 12.2248 12.7287C11.882 13.333 12.1069 14.0935 12.7271 14.4274L13.9681 12.2393ZM22.7471 13.75H17.2901V16.25H22.7471V13.75ZM26.0494 12.2502C24.9769 12.8522 23.8161 13.2781 22.6109 13.5126L23.1135 15.9642C24.5936 15.6762 26.0172 15.1534 27.3301 14.4165L26.0494 12.2502ZM22.6147 13.5118C20.8983 13.8407 19.1341 13.8283 17.4224 13.4754L16.8912 15.9213C18.941 16.3439 21.0542 16.3587 23.1097 15.9649L22.6147 13.5118ZM17.4107 13.4731C16.2087 13.2366 15.0482 12.8209 13.9681 12.2393L12.7271 14.4274C14.0353 15.1319 15.4429 15.6364 16.9029 15.9236L17.4107 13.4731Z" fill="#0F0F0F"/>
</svg>
