<svg width="44" height="43" viewBox="0 0 44 43" fill="none" xmlns="http://www.w3.org/2000/svg">
<g clip-path="url(#clip0_49_121)">
<path d="M43.6562 33.5435V0.356812H0.34375V33.5435H19.4219V38.7178H12.8906V42.6431H31.1094V38.7178H24.5781V33.5435H43.6562ZM3.26562 3.39001H40.5625V30.3319H3.26562V3.39001ZM12.9589 12.175L14.4707 24.4252H19.5197L21.0167 12.175H14.8375L13.6046 7.74121L12.9295 7.93926L14.1037 12.1597L12.9589 12.175ZM21.7358 19.3209C21.7358 19.3209 21.545 17.5383 24.1723 17.5383H28.3554C30.9679 17.5383 30.7919 19.3209 30.7919 19.3209H21.7358ZM30.777 22.6424C30.777 22.6424 30.9531 24.425 28.3405 24.425H24.1722C21.5449 24.425 21.7357 22.6424 21.7357 22.6424H30.777ZM22.1322 21.774C21.7066 21.774 21.3543 21.4236 21.3543 20.9665C21.3543 20.5247 21.6918 20.1589 22.1322 20.1589H30.4396C30.8651 20.1589 31.2175 20.5094 31.2175 20.9665C31.2175 21.4083 30.8653 21.774 30.4396 21.774H22.1322ZM31.3935 26.8325H12.6065V25.3546H31.3935V26.8325Z" fill="#0F0F0F"/>
</g>
<defs>
<clipPath id="clip0_49_121">
<rect width="44" height="43" fill="white"/>
</clipPath>
</defs>
</svg>
